<svg width="119" height="204" viewBox="0 0 119 204" fill="none" xmlns="http://www.w3.org/2000/svg">
<g id="contactplant">
<path id="stem" d="M63.8665 88C63.8665 88 38.8025 124.021 68.5704 150.534C81.0669 161.659 85.212 174.152 79.4413 186.228C76.6819 191.961 72.6859 197.576 67.5036 203" stroke="#584BEB" stroke-width="2" stroke-miterlimit="10"/>
<path id="sideleaf2" d="M111.24 143.447C102.99 149.547 68 152.307 68 152.307C68 152.307 80.88 119.667 89.13 113.557C93.0963 110.672 98.042 109.471 102.89 110.216C107.737 110.961 112.094 113.592 115.011 117.535C117.928 121.478 119.168 126.414 118.462 131.267C117.755 136.121 115.16 140.499 111.24 143.447Z" fill="#F04CC7"/>
<path id="sideleaf1" d="M9.8993 123.018C19.0693 127.638 54.0093 124.448 54.0093 124.448C54.0093 124.448 35.7993 94.4482 26.6293 89.8282C22.2417 87.7238 17.2037 87.4237 12.5973 88.9924C7.99084 90.5611 4.18312 93.8735 1.9917 98.2184C-0.199713 102.563 -0.600072 107.594 0.876531 112.231C2.35313 116.868 5.589 120.741 9.88935 123.018H9.8993Z" fill="#F04CC7"/>
<path id="sideleaf3" d="M34.6544 178.623C42.9044 184.723 77.8944 187.483 77.8944 187.483C77.8944 187.483 65.0144 154.843 56.7644 148.733C54.8034 147.258 52.5698 146.186 50.1924 145.579C47.815 144.971 45.3409 144.84 42.9127 145.194C40.4845 145.547 38.1504 146.378 36.0447 147.638C33.9391 148.898 32.1038 150.562 30.6445 152.535C29.1853 154.507 28.131 156.749 27.5425 159.132C26.9541 161.514 26.843 163.989 27.2158 166.414C27.5885 168.839 28.4378 171.167 29.7145 173.262C30.9912 175.358 32.6701 177.18 34.6544 178.623Z" fill="#F04CC7"/>
<g id="main">
<path id="mainleaf" d="M16 29.6617C16 46.4373 60.5001 95 60.5001 95C60.5001 95 105 46.372 105 29.6617C104.73 21.7323 99.925 14.1895 91.6112 8.64643C83.2975 3.10336 72.1355 0 60.5121 0C48.8886 0 37.7265 3.10336 29.4127 8.64643C21.099 14.1895 16.2935 21.7323 16.024 29.6617H16Z" fill="#F04CC7"/>
<path id="Contact" d="M41.5312 27.1406C41.6875 27.1875 41.7812 27.2031 41.8125 27.1875C41.8594 27.1719 41.8984 27.1719 41.9297 27.1875C42.1328 27.2656 42.2969 27.3047 42.4219 27.3047C42.4688 27.3516 42.5156 27.375 42.5625 27.375C42.625 27.375 42.6797 27.3828 42.7266 27.3984C42.8672 27.4922 42.9453 27.5391 42.9609 27.5391C43.1172 27.5859 43.2422 27.625 43.3359 27.6562C43.4297 27.6719 43.5156 27.7031 43.5938 27.75C43.6562 27.7812 43.7109 27.8125 43.7578 27.8438C43.8047 27.875 43.8672 27.8906 43.9453 27.8906C44.1797 28.0312 44.3828 28.1484 44.5547 28.2422C44.5859 28.2734 44.6172 28.3047 44.6484 28.3359C44.6797 28.3672 44.7344 28.3828 44.8125 28.3828C44.8438 28.4766 44.9141 28.5391 45.0234 28.5703C45.1328 28.7266 45.1953 28.7969 45.2109 28.7812C45.2266 28.75 45.25 28.75 45.2812 28.7812C45.3438 28.8438 45.3984 28.9141 45.4453 28.9922C45.4922 29.0703 45.5781 29.1094 45.7031 29.1094C45.8281 29.2344 45.9531 29.3281 46.0781 29.3906C46.125 29.5 46.1875 29.5625 46.2656 29.5781C46.3125 29.6875 46.3828 29.75 46.4766 29.7656C46.5078 29.7969 46.5234 29.8438 46.5234 29.9062C46.5234 29.9688 46.5625 29.9922 46.6406 29.9766C46.6094 30.1172 46.6172 30.1953 46.6641 30.2109C46.7266 30.2266 46.75 30.2734 46.7344 30.3516C46.7969 30.4141 46.8516 30.4844 46.8984 30.5625C46.9609 30.625 47.0078 30.7109 47.0391 30.8203C47.1797 30.9609 47.25 31.0625 47.25 31.125C47.25 31.1875 47.2578 31.2422 47.2734 31.2891C47.3516 31.4453 47.3906 31.5547 47.3906 31.6172C47.3906 31.6797 47.3906 31.7344 47.3906 31.7812C47.4062 31.9531 47.4219 32.0547 47.4375 32.0859C47.4531 32.1016 47.4453 32.125 47.4141 32.1562C47.5078 32.3125 47.5547 32.4219 47.5547 32.4844C47.5703 32.5469 47.5625 32.625 47.5312 32.7188C47.4688 32.8594 47.4375 32.9609 47.4375 33.0234C47.4531 33.0859 47.4297 33.1328 47.3672 33.1641C47.3828 33.1953 47.3828 33.25 47.3672 33.3281C47.3672 33.4062 47.3516 33.4688 47.3203 33.5156C47.3203 33.6875 47.3125 33.8047 47.2969 33.8672C47.2969 33.9297 47.2656 33.9766 47.2031 34.0078C47.125 34.2109 47.0859 34.3672 47.0859 34.4766C47.0234 34.6641 46.9609 34.7734 46.8984 34.8047C46.8516 34.8359 46.8281 34.8906 46.8281 34.9688C46.7969 35.1562 46.7578 35.2578 46.7109 35.2734C46.6641 35.2734 46.625 35.2891 46.5938 35.3203C46.4844 35.4609 46.4219 35.5312 46.4062 35.5312C46.3594 35.6562 46.3359 35.7422 46.3359 35.7891C46.3359 35.8203 46.3047 35.8281 46.2422 35.8125C46.1953 35.8594 46.1406 35.9062 46.0781 35.9531C46.0312 36 45.9844 36.0547 45.9375 36.1172C45.875 36.2109 45.8281 36.2656 45.7969 36.2812C45.7812 36.2969 45.7812 36.3281 45.7969 36.375C45.6875 36.4531 45.6016 36.5078 45.5391 36.5391C45.4766 36.5703 45.4375 36.625 45.4219 36.7031C45.2656 36.7656 45.1797 36.8438 45.1641 36.9375L44.9297 37.0781C44.7891 37.2031 44.6875 37.2656 44.625 37.2656C44.5781 37.2656 44.5156 37.2812 44.4375 37.3125C44.375 37.3906 44.2891 37.4453 44.1797 37.4766C44.0859 37.5078 44.0156 37.5781 43.9688 37.6875C43.8438 37.6719 43.7656 37.7031 43.7344 37.7812C43.7188 37.8594 43.6484 37.8906 43.5234 37.875C43.3672 37.9531 43.2734 38.0078 43.2422 38.0391C43.2109 38.0547 43.1641 38.0547 43.1016 38.0391C42.9766 38.0859 42.9062 38.1016 42.8906 38.0859C42.875 38.0703 42.8516 38.0625 42.8203 38.0625C42.7578 38.0781 42.7109 38.1016 42.6797 38.1328C42.6484 38.1484 42.6094 38.1641 42.5625 38.1797C42.4531 38.1953 42.3594 38.1797 42.2812 38.1328C42.25 38.1641 42.2109 38.1875 42.1641 38.2031C42.1172 38.2031 42.0781 38.2188 42.0469 38.25C41.8438 38.2031 41.6797 38.1875 41.5547 38.2031C41.4297 38.2031 41.3438 38.1797 41.2969 38.1328C41.1562 38.1641 41.0781 38.1719 41.0625 38.1562C41.0625 38.125 41.0469 38.1016 41.0156 38.0859C40.9219 38.0703 40.8203 38.0625 40.7109 38.0625C40.6641 38.0156 40.6016 37.9766 40.5234 37.9453C40.4609 37.9141 40.3906 37.8828 40.3125 37.8516C40.1719 37.6953 40.0859 37.5938 40.0547 37.5469C40.0234 37.4844 39.9766 37.4375 39.9141 37.4062L39.75 37.1016C39.7031 36.9609 39.6719 36.8906 39.6562 36.8906C39.6406 36.875 39.625 36.8516 39.6094 36.8203C39.5781 36.7266 39.5703 36.625 39.5859 36.5156C39.6016 36.3906 39.5938 36.2812 39.5625 36.1875C39.625 36.0781 39.6484 36.0156 39.6328 36C39.6328 35.9688 39.6328 35.9375 39.6328 35.9062C39.6953 35.75 39.7422 35.6719 39.7734 35.6719C39.7578 35.6094 39.7656 35.5703 39.7969 35.5547C39.8281 35.5391 39.8438 35.4922 39.8438 35.4141C39.9219 35.3203 39.9688 35.2656 39.9844 35.25C40.0156 35.2188 40.0469 35.1797 40.0781 35.1328C40.1406 35.1641 40.1875 35.1562 40.2188 35.1094C40.2656 35.0625 40.3047 35.0156 40.3359 34.9688L40.5938 34.8281C40.7656 34.7344 40.8594 34.6953 40.875 34.7109C40.8906 34.7109 40.9062 34.7109 40.9219 34.7109C40.9844 34.6953 41.0312 34.6797 41.0625 34.6641C41.1094 34.6484 41.1562 34.6562 41.2031 34.6875C41.2344 34.7188 41.25 34.7656 41.25 34.8281C41.2656 34.8906 41.2812 34.9375 41.2969 34.9688C41.1719 35.1094 41.1016 35.1797 41.0859 35.1797C41.1016 35.3359 41.1172 35.4453 41.1328 35.5078C41.1484 35.5547 41.1562 35.6094 41.1562 35.6719C41.1562 35.875 41.1875 36.0234 41.25 36.1172C41.3281 36.1953 41.3906 36.2812 41.4375 36.375C41.5156 36.4531 41.5547 36.5 41.5547 36.5156C41.5703 36.5312 41.5859 36.5547 41.6016 36.5859C41.6797 36.5859 41.7422 36.6094 41.7891 36.6562C41.8516 36.6875 41.9297 36.6953 42.0234 36.6797C42.1484 36.7891 42.2188 36.8438 42.2344 36.8438C42.2656 36.8438 42.3047 36.8516 42.3516 36.8672C42.4609 36.9141 42.5234 36.9375 42.5391 36.9375C42.5703 36.9219 42.6016 36.9219 42.6328 36.9375C42.7266 36.9844 42.7969 37.0156 42.8438 37.0312C42.9062 37.0469 42.9688 37.0547 43.0312 37.0547C43.2344 36.9766 43.3672 36.9453 43.4297 36.9609C43.5078 36.9766 43.5859 36.9688 43.6641 36.9375C43.7109 36.9062 43.75 36.8906 43.7812 36.8906C43.8281 36.875 43.875 36.8516 43.9219 36.8203C44 36.7891 44.0781 36.7656 44.1562 36.75C44.2344 36.7344 44.2891 36.6875 44.3203 36.6094C44.5078 36.5625 44.6172 36.5156 44.6484 36.4688C44.6953 36.4062 44.7578 36.3594 44.8359 36.3281C44.8984 36.2344 44.9453 36.1406 44.9766 36.0469C45.0234 35.9375 45.1016 35.8594 45.2109 35.8125C45.1953 35.6875 45.2031 35.6172 45.2344 35.6016C45.2656 35.5859 45.2969 35.5625 45.3281 35.5312C45.3438 35.3906 45.3594 35.3125 45.375 35.2969C45.3906 35.2656 45.4141 35.2266 45.4453 35.1797C45.5078 35.0234 45.5469 34.9453 45.5625 34.9453C45.5781 34.9297 45.5859 34.9141 45.5859 34.8984C45.5703 34.7891 45.5703 34.7266 45.5859 34.7109C45.6172 34.6953 45.6172 34.6719 45.5859 34.6406C45.6172 34.6094 45.6328 34.5703 45.6328 34.5234C45.6484 34.4766 45.6719 34.4375 45.7031 34.4062C45.6875 34.3125 45.6875 34.25 45.7031 34.2188C45.7188 34.1719 45.7422 34.1094 45.7734 34.0312C45.7422 33.8906 45.7422 33.8203 45.7734 33.8203C45.8203 33.8047 45.8359 33.7734 45.8203 33.7266C45.8359 33.6484 45.8281 33.6094 45.7969 33.6094C45.7656 33.5938 45.7656 33.5469 45.7969 33.4688C45.8281 33.3594 45.8438 33.2812 45.8438 33.2344C45.8594 33.1875 45.8594 33.1406 45.8438 33.0938C45.8125 32.9688 45.8047 32.8984 45.8203 32.8828C45.8359 32.8672 45.8359 32.8359 45.8203 32.7891C45.7891 32.3828 45.7031 32.1406 45.5625 32.0625C45.5469 31.9062 45.5156 31.8125 45.4688 31.7812C45.4219 31.7344 45.3828 31.7031 45.3516 31.6875C45.2891 31.4688 45.2266 31.3438 45.1641 31.3125C45.1172 31.2656 45.0859 31.2031 45.0703 31.125C45.0078 31 44.9609 30.9219 44.9297 30.8906C44.8047 30.7812 44.7266 30.7266 44.6953 30.7266C44.6641 30.7109 44.6562 30.6797 44.6719 30.6328C44.5625 30.5078 44.4531 30.3984 44.3438 30.3047C44.25 30.2109 44.1406 30.125 44.0156 30.0469C43.9062 29.9219 43.8359 29.8516 43.8047 29.8359C43.7891 29.8047 43.7422 29.7891 43.6641 29.7891C43.5391 29.6953 43.4531 29.6328 43.4062 29.6016C43.375 29.5703 43.3203 29.5469 43.2422 29.5312C43.1328 29.3906 43.0703 29.3281 43.0547 29.3438C43.0391 29.3594 43.0156 29.3672 42.9844 29.3672C42.9375 29.2891 42.8594 29.25 42.75 29.25C42.6719 29.1094 42.5234 29.0391 42.3047 29.0391C42.2578 28.9609 42.1719 28.9219 42.0469 28.9219C42.0156 28.8906 41.9688 28.8672 41.9062 28.8516C41.8438 28.8203 41.7969 28.7734 41.7656 28.7109C41.6406 28.6953 41.5547 28.6875 41.5078 28.6875C41.4766 28.6875 41.4531 28.6719 41.4375 28.6406L41.0859 28.5938C40.9297 28.5625 40.7891 28.5234 40.6641 28.4766C40.5391 28.4766 40.4609 28.4688 40.4297 28.4531C40.3984 28.4219 40.3516 28.4141 40.2891 28.4297C40.0547 28.4609 39.8906 28.4766 39.7969 28.4766C39.7031 28.4609 39.6172 28.4531 39.5391 28.4531C39.3359 28.4844 39.1641 28.4688 39.0234 28.4062C38.8984 28.4219 38.7812 28.4453 38.6719 28.4766C38.5781 28.5078 38.4844 28.5078 38.3906 28.4766C38.2188 28.5234 38.1328 28.5547 38.1328 28.5703C38.1328 28.5859 38.1172 28.5938 38.0859 28.5938C37.9922 28.5938 37.9297 28.6016 37.8984 28.6172C37.8672 28.6328 37.8203 28.6484 37.7578 28.6641C37.6484 28.6953 37.4922 28.7266 37.2891 28.7578C37.1328 28.8047 37.0156 28.8281 36.9375 28.8281C36.8594 28.875 36.7891 28.8984 36.7266 28.8984C36.6797 28.8828 36.6406 28.8906 36.6094 28.9219C36.4531 29.0156 36.3438 29.0703 36.2812 29.0859C36.2344 29.1016 36.1953 29.1328 36.1641 29.1797C35.9609 29.1953 35.7969 29.25 35.6719 29.3438C35.5625 29.4219 35.4219 29.4922 35.25 29.5547C35.0781 29.6328 34.9844 29.6797 34.9688 29.6953C34.9688 29.7109 34.9531 29.7266 34.9219 29.7422C34.7812 29.7734 34.7031 29.8125 34.6875 29.8594C34.5469 29.9375 34.4609 29.9844 34.4297 30C34.4141 30.0156 34.375 30.0156 34.3125 30C34.2812 30.0312 34.2422 30.0625 34.1953 30.0938C34.1484 30.1094 34.1016 30.1328 34.0547 30.1641C33.9141 30.2734 33.8359 30.3359 33.8203 30.3516C33.6484 30.4297 33.5625 30.4688 33.5625 30.4688C33.4531 30.5156 33.3906 30.5859 33.375 30.6797C33.3125 30.6953 33.2656 30.7188 33.2344 30.75C33.2031 30.7812 33.1641 30.8125 33.1172 30.8438C32.8984 30.9844 32.7578 31.0781 32.6953 31.125C32.6172 31.1719 32.5547 31.2188 32.5078 31.2656C32.4766 31.3125 32.4297 31.3438 32.3672 31.3594C32.2734 31.4844 32.2109 31.5625 32.1797 31.5938C32.1484 31.6094 32.1016 31.6328 32.0391 31.6641C31.9453 31.7734 31.8828 31.8359 31.8516 31.8516C31.8203 31.8672 31.8047 31.8594 31.8047 31.8281C31.6797 31.9531 31.6016 32.0234 31.5703 32.0391C31.5391 32.0547 31.4922 32.0703 31.4297 32.0859C31.3203 32.1641 31.2422 32.2422 31.1953 32.3203C31.1484 32.3828 31.0859 32.4297 31.0078 32.4609C30.9922 32.5234 30.9766 32.5781 30.9609 32.625C30.9453 32.6562 30.9297 32.6953 30.9141 32.7422C30.7734 32.7891 30.7031 32.8359 30.7031 32.8828C30.7188 32.9297 30.6953 32.9453 30.6328 32.9297C30.6016 32.9766 30.5625 33.0234 30.5156 33.0703C30.4688 33.1172 30.4219 33.1719 30.375 33.2344C30.3438 33.2656 30.3203 33.3047 30.3047 33.3516C30.2891 33.3984 30.2812 33.4609 30.2812 33.5391C30.1719 33.6797 30.0547 33.7891 29.9297 33.8672C29.8984 33.9453 29.875 34 29.8594 34.0312C29.8594 34.0625 29.8281 34.0938 29.7656 34.125C29.7656 34.3125 29.7109 34.4531 29.6016 34.5469C29.6172 34.6562 29.6016 34.7422 29.5547 34.8047C29.5078 34.8516 29.5 34.9297 29.5312 35.0391C29.4688 35.1953 29.4219 35.2969 29.3906 35.3438C29.3594 35.3906 29.3438 35.4531 29.3438 35.5312C29.25 35.625 29.2031 35.6953 29.2031 35.7422C29.2031 35.7734 29.1875 35.8047 29.1562 35.8359C29.0625 36.0078 29.0234 36.1016 29.0391 36.1172C29.0703 36.1328 29.0781 36.1562 29.0625 36.1875C29.0156 36.2656 28.9922 36.3359 28.9922 36.3984C29.0078 36.4453 29.0078 36.5078 28.9922 36.5859C28.9141 36.7578 28.8828 36.8672 28.8984 36.9141C28.9141 36.9453 28.9219 37 28.9219 37.0781C28.8906 37.1875 28.875 37.25 28.875 37.2656C28.8906 37.2812 28.8984 37.3047 28.8984 37.3359C28.8672 37.4766 28.8594 37.5703 28.875 37.6172C28.8906 37.6641 28.8906 37.7109 28.875 37.7578L28.8047 38.1094C28.8359 38.25 28.8438 38.3359 28.8281 38.3672C28.8281 38.3828 28.8281 38.4062 28.8281 38.4375C28.8281 38.5 28.8281 38.5547 28.8281 38.6016C28.8438 38.6484 28.8516 38.6953 28.8516 38.7422C28.8203 38.8359 28.8125 38.9062 28.8281 38.9531C28.8438 38.9844 28.8281 39.0078 28.7812 39.0234C28.8281 39.1484 28.8281 39.2422 28.7812 39.3047C28.8438 39.3672 28.875 39.4375 28.875 39.5156C28.875 39.5781 28.8672 39.6562 28.8516 39.75C28.8359 39.8281 28.8203 39.9141 28.8047 40.0078C28.7891 40.0859 28.8047 40.1641 28.8516 40.2422C28.8672 40.4141 28.8672 40.5078 28.8516 40.5234C28.8516 40.5234 28.8516 40.5391 28.8516 40.5703C28.8828 40.6328 28.9062 40.7031 28.9219 40.7812C28.9375 40.8594 28.9609 40.9219 28.9922 40.9688C28.9609 41.0312 28.9531 41.1016 28.9688 41.1797C29 41.2578 29.0234 41.3281 29.0391 41.3906C29.0391 41.4219 29.0391 41.4688 29.0391 41.5312C29.0547 41.5781 29.0469 41.6172 29.0156 41.6484C29.0469 41.6953 29.0781 41.75 29.1094 41.8125C29.1406 41.8594 29.1797 41.8984 29.2266 41.9297C29.2109 42.0078 29.2109 42.0703 29.2266 42.1172C29.2578 42.1641 29.2734 42.2109 29.2734 42.2578C29.2891 42.3047 29.3047 42.3516 29.3203 42.3984C29.3516 42.4453 29.3672 42.5156 29.3672 42.6094C29.4141 42.7969 29.4688 42.8984 29.5312 42.9141C29.5625 43.0547 29.5781 43.1484 29.5781 43.1953C29.6719 43.3516 29.7031 43.4375 29.6719 43.4531C29.6562 43.4688 29.6484 43.5 29.6484 43.5469C29.7422 43.7031 29.8203 43.8047 29.8828 43.8516C29.9453 43.8828 30 43.9375 30.0469 44.0156C30.0312 44.1406 30.0547 44.2344 30.1172 44.2969C30.1953 44.3594 30.2109 44.4453 30.1641 44.5547C30.2891 44.6641 30.3516 44.7344 30.3516 44.7656C30.3516 44.7969 30.3672 44.8047 30.3984 44.7891C30.3828 44.8984 30.3906 44.9844 30.4219 45.0469C30.5625 45.1406 30.6562 45.1953 30.7031 45.2109C30.7656 45.3984 30.8125 45.5078 30.8438 45.5391L30.9609 45.7734C30.9922 45.8203 31.0234 45.8516 31.0547 45.8672C31.0859 45.8984 31.1172 45.9297 31.1484 45.9609C31.1328 46.0547 31.1406 46.1094 31.1719 46.125C31.2188 46.1406 31.2266 46.1719 31.1953 46.2188C31.3516 46.3906 31.5156 46.5234 31.6875 46.6172C31.7812 46.7422 31.8594 46.8125 31.9219 46.8281C31.9844 46.8594 32.0234 46.9141 32.0391 46.9922C32.1641 47.1172 32.25 47.1953 32.2969 47.2266C32.5312 47.3672 32.6719 47.4844 32.7188 47.5781C32.7812 47.6719 32.8594 47.7422 32.9531 47.7891C33.0312 47.9141 33.0781 47.9766 33.0938 47.9766C33.125 47.9922 33.1641 48 33.2109 48C33.2578 48.0781 33.3125 48.1484 33.375 48.2109C33.4375 48.2734 33.4922 48.3438 33.5391 48.4219C33.6016 48.5156 33.6641 48.5547 33.7266 48.5391C33.7891 48.5391 33.8125 48.5625 33.7969 48.6094C33.9219 48.7031 34.0234 48.7578 34.1016 48.7734C34.1953 48.8047 34.2812 48.8438 34.3594 48.8906C34.4219 48.9688 34.4766 49.0078 34.5234 49.0078C34.5859 49.0234 34.6172 49.0469 34.6172 49.0781C34.8359 49.1719 34.9688 49.2422 35.0156 49.2891C35.0625 49.3516 35.1406 49.375 35.25 49.3594C35.4219 49.4062 35.5312 49.4453 35.5781 49.4766C35.625 49.5078 35.6797 49.5312 35.7422 49.5469C35.8203 49.6094 35.875 49.6484 35.9062 49.6641C35.9375 49.6797 35.9766 49.7031 36.0234 49.7344C36.1484 49.7188 36.2188 49.7266 36.2344 49.7578C36.25 49.7891 36.2734 49.8047 36.3047 49.8047C36.5234 49.8516 36.6562 49.8828 36.7031 49.8984C36.9219 49.9609 37.0312 49.9922 37.0312 49.9922C37.1719 50.0391 37.2578 50.0625 37.2891 50.0625C37.3359 50.0938 37.3906 50.1016 37.4531 50.0859C37.5156 50.0859 37.5703 50.1094 37.6172 50.1562C37.8203 50.1406 37.9219 50.1719 37.9219 50.25C37.9531 50.2031 37.9922 50.1875 38.0391 50.2031C38.0859 50.2188 38.1328 50.2266 38.1797 50.2266C38.2578 50.2266 38.3359 50.2188 38.4141 50.2031C38.4922 50.2031 38.5781 50.2109 38.6719 50.2266C38.8438 50.2578 38.9531 50.2656 39 50.25C39.0625 50.2344 39.1172 50.2422 39.1641 50.2734C39.3203 50.2422 39.4297 50.2266 39.4922 50.2266C39.5547 50.2266 39.6172 50.2188 39.6797 50.2031C39.8203 50.2344 39.9062 50.2422 39.9375 50.2266C39.9688 50.2109 40 50.1953 40.0312 50.1797C40.125 50.1484 40.2188 50.1406 40.3125 50.1562C40.4062 50.1719 40.5078 50.1719 40.6172 50.1562C40.7891 50.125 40.8906 50.0938 40.9219 50.0625C41.0781 50.0781 41.1641 50.0859 41.1797 50.0859C41.3203 50.0547 41.4062 50.0391 41.4375 50.0391C41.4844 50.0547 41.5312 50.0547 41.5781 50.0391C41.7344 50.0078 41.8438 49.9766 41.9062 49.9453C42.1094 49.8984 42.2344 49.8594 42.2812 49.8281C42.3281 49.8125 42.3906 49.8125 42.4688 49.8281C42.5312 49.7969 42.5938 49.7656 42.6562 49.7344C42.7344 49.7188 42.8125 49.6953 42.8906 49.6641C43.0781 49.6016 43.1797 49.5625 43.1953 49.5469C43.2109 49.5312 43.2344 49.5234 43.2656 49.5234C43.375 49.4609 43.4375 49.4141 43.4531 49.3828C43.4844 49.3672 43.5156 49.3516 43.5469 49.3359C43.7344 49.2422 43.8672 49.1719 43.9453 49.125C44.0234 49.0938 44.1016 49.0547 44.1797 49.0078C44.3828 48.8828 44.5312 48.7578 44.625 48.6328C44.7812 48.5078 44.8594 48.4219 44.8594 48.375C44.8594 48.3438 44.8828 48.3359 44.9297 48.3516C45.0234 48.2578 45.0781 48.1953 45.0938 48.1641C45.1094 48.1484 45.1406 48.1406 45.1875 48.1406C45.2656 48.0156 45.3203 47.9297 45.3516 47.8828C45.3828 47.8516 45.4375 47.8203 45.5156 47.7891C45.6406 47.6797 45.7344 47.6094 45.7969 47.5781C45.875 47.5625 45.9609 47.5625 46.0547 47.5781C46.1484 47.6562 46.1484 47.7344 46.0547 47.8125C45.9766 47.8906 45.9219 47.9766 45.8906 48.0703C45.8125 48.1484 45.75 48.1953 45.7031 48.2109C45.6719 48.2266 45.6484 48.2656 45.6328 48.3281C45.4141 48.4062 45.2812 48.5391 45.2344 48.7266C45.1562 48.7422 45.1016 48.7734 45.0703 48.8203C45.0547 48.8828 45.0234 48.9375 44.9766 48.9844C44.8516 49.0938 44.7734 49.1484 44.7422 49.1484C44.7109 49.1641 44.6953 49.2031 44.6953 49.2656C44.5234 49.3281 44.4297 49.375 44.4141 49.4062C44.3984 49.4531 44.375 49.4922 44.3438 49.5234C44.2031 49.6016 44.1328 49.6641 44.1328 49.7109L43.7344 49.9453C43.7031 49.9766 43.6562 50.0078 43.5938 50.0391C43.5469 50.0703 43.5078 50.1172 43.4766 50.1797C43.3047 50.2422 43.2031 50.2734 43.1719 50.2734C43.1406 50.2891 43.1016 50.2969 43.0547 50.2969C42.9922 50.2969 42.9453 50.3203 42.9141 50.3672C42.8984 50.4141 42.875 50.4531 42.8438 50.4844L42.5391 50.625C42.4922 50.6562 42.4453 50.6797 42.3984 50.6953C42.3516 50.7109 42.3125 50.7344 42.2812 50.7656C42.1406 50.8438 42.0469 50.8828 42 50.8828C41.9531 50.8984 41.9141 50.9219 41.8828 50.9531C41.7422 50.9688 41.6562 50.9766 41.625 50.9766C41.6094 50.9766 41.5859 50.9844 41.5547 51C41.3672 51.125 41.25 51.1875 41.2031 51.1875C41.1719 51.1875 41.1328 51.2031 41.0859 51.2344C40.9609 51.2656 40.875 51.2891 40.8281 51.3047C40.6406 51.3203 40.5312 51.3203 40.5 51.3047C40.4688 51.3047 40.4453 51.3047 40.4297 51.3047C40.3672 51.3359 40.3203 51.3672 40.2891 51.3984C40.2578 51.4297 40.2188 51.4688 40.1719 51.5156C40.0938 51.4844 40.0156 51.4766 39.9375 51.4922C39.875 51.5078 39.7969 51.5234 39.7031 51.5391C39.625 51.5391 39.5391 51.5234 39.4453 51.4922C39.3672 51.4766 39.2891 51.4844 39.2109 51.5156C39.1484 51.5156 39.0938 51.5312 39.0469 51.5625C39 51.6094 38.9531 51.6484 38.9062 51.6797C38.7344 51.6172 38.5781 51.625 38.4375 51.7031C38.4062 51.6719 38.3516 51.6562 38.2734 51.6562C38.2109 51.6562 38.1484 51.6719 38.0859 51.7031C37.9609 51.6562 37.875 51.6328 37.8281 51.6328C37.7969 51.6484 37.7578 51.6562 37.7109 51.6562C37.5547 51.5938 37.4688 51.5781 37.4531 51.6094C37.4375 51.6406 37.4141 51.6562 37.3828 51.6562C37.3047 51.6406 37.25 51.6328 37.2188 51.6328C37.1875 51.6328 37.1406 51.6484 37.0781 51.6797C37 51.6016 36.8906 51.5703 36.75 51.5859C36.625 51.6172 36.5234 51.5938 36.4453 51.5156C36.3516 51.5312 36.2812 51.5312 36.2344 51.5156C36.1875 51.5156 36.1562 51.4844 36.1406 51.4219C35.9375 51.4219 35.7812 51.4141 35.6719 51.3984C35.5781 51.3828 35.4922 51.3359 35.4141 51.2578C35.2422 51.2422 35.1328 51.2109 35.0859 51.1641C35.0391 51.1328 34.9609 51.1172 34.8516 51.1172C34.8203 51.0859 34.7812 51.0469 34.7344 51C34.7031 50.9531 34.6719 50.9141 34.6406 50.8828C34.5156 50.8984 34.4219 50.8906 34.3594 50.8594C34.2969 50.8281 34.2109 50.8125 34.1016 50.8125C34.0234 50.7344 33.9453 50.6875 33.8672 50.6719C33.7891 50.6562 33.7109 50.6172 33.6328 50.5547C33.4609 50.4453 33.3594 50.3828 33.3281 50.3672C33.3125 50.3672 33.2969 50.3594 33.2812 50.3438C33.2344 50.3125 33.1797 50.2812 33.1172 50.25C33.0703 50.2188 33.0078 50.1953 32.9297 50.1797C32.8984 50.1328 32.8672 50.0859 32.8359 50.0391C32.8047 50.0078 32.75 49.9844 32.6719 49.9688C32.5469 49.8281 32.4688 49.7656 32.4375 49.7812C32.4219 49.8125 32.3984 49.8203 32.3672 49.8047C32.3359 49.7422 32.2812 49.6953 32.2031 49.6641C32.1406 49.6484 32.0938 49.6094 32.0625 49.5469C31.9531 49.4844 31.8906 49.4375 31.875 49.4062C31.8594 49.3906 31.8438 49.3594 31.8281 49.3125C31.7344 49.2812 31.6562 49.2266 31.5938 49.1484C31.5469 49.0859 31.4688 49.0391 31.3594 49.0078C31.2812 48.8984 31.2266 48.8203 31.1953 48.7734C31.1797 48.7422 31.1562 48.7109 31.125 48.6797C31.0156 48.5547 30.9219 48.4688 30.8438 48.4219C30.7812 48.3906 30.7344 48.3359 30.7031 48.2578C30.5938 48.1797 30.5234 48.125 30.4922 48.0938C30.4609 48.0781 30.4297 48.0547 30.3984 48.0234C30.3047 47.9297 30.25 47.875 30.2344 47.8594C30.2344 47.8438 30.2266 47.8281 30.2109 47.8125C30.0859 47.7031 30.0078 47.6406 29.9766 47.625C29.9609 47.6094 29.9609 47.5859 29.9766 47.5547C29.8984 47.5078 29.8438 47.4375 29.8125 47.3438C29.7812 47.2656 29.7266 47.2109 29.6484 47.1797C29.6484 47.1328 29.625 47.0859 29.5781 47.0391C29.5469 46.9922 29.5156 46.9531 29.4844 46.9219C29.4531 46.8906 29.4297 46.8516 29.4141 46.8047C29.3984 46.7578 29.375 46.7188 29.3438 46.6875C29.25 46.6094 29.1953 46.5547 29.1797 46.5234C29.1797 46.4922 29.1719 46.4688 29.1562 46.4531C29.0938 46.3594 29.0469 46.2969 29.0156 46.2656C29 46.25 28.9766 46.2266 28.9453 46.1953C28.9141 46.1172 28.8828 46.0469 28.8516 45.9844C28.8203 45.9219 28.7734 45.8594 28.7109 45.7969C28.6797 45.6094 28.6172 45.4688 28.5234 45.375C28.4609 45.2031 28.3984 45.1016 28.3359 45.0703C28.3672 45.0234 28.3672 44.9844 28.3359 44.9531C28.3203 44.9219 28.2969 44.875 28.2656 44.8125C28.2188 44.5781 28.1719 44.4375 28.125 44.3906C28.0938 44.3438 28.0547 44.2969 28.0078 44.25C28.0078 44.1406 27.9609 44.0391 27.8672 43.9453C27.8984 43.7891 27.8672 43.6875 27.7734 43.6406L27.7266 43.3359C27.6797 43.1953 27.6484 43.0859 27.6328 43.0078C27.6328 42.9141 27.6094 42.8438 27.5625 42.7969C27.5312 42.6562 27.5156 42.5625 27.5156 42.5156C27.5156 42.4688 27.5 42.4141 27.4688 42.3516C27.4219 42.2734 27.3984 42.2188 27.3984 42.1875C27.4141 42.1562 27.4141 42.125 27.3984 42.0938L27.3516 41.7422C27.3203 41.5703 27.3125 41.4844 27.3281 41.4844C27.3281 41.4531 27.3125 41.4062 27.2812 41.3438C27.2656 41.2656 27.2578 41.2109 27.2578 41.1797C27.2578 41.1484 27.2578 41.0938 27.2578 41.0156C27.2734 40.9375 27.2812 40.8594 27.2812 40.7812C27.2812 40.7344 27.2734 40.6953 27.2578 40.6641C27.2422 40.6172 27.2344 40.5703 27.2344 40.5234C27.25 40.3672 27.25 40.2656 27.2344 40.2188C27.2344 40.1562 27.25 40.0859 27.2812 40.0078C27.2344 39.9297 27.2188 39.8359 27.2344 39.7266C27.2656 39.6172 27.2812 39.4922 27.2812 39.3516C27.2656 39.2266 27.2656 39.1406 27.2812 39.0938C27.2969 39.0469 27.3047 38.9922 27.3047 38.9297V38.6484C27.2891 38.4297 27.2891 38.2969 27.3047 38.25C27.3359 38.1875 27.3359 38.125 27.3047 38.0625C27.3516 38.0312 27.375 37.9688 27.375 37.875C27.375 37.7812 27.3828 37.6875 27.3984 37.5938C27.4609 37.4375 27.4922 37.3125 27.4922 37.2188C27.5078 37.1094 27.5312 37.0156 27.5625 36.9375C27.5781 36.8906 27.5938 36.8438 27.6094 36.7969C27.6406 36.75 27.6562 36.7031 27.6562 36.6562C27.7188 36.5 27.75 36.3906 27.75 36.3281C27.8125 36.1875 27.8438 36.1016 27.8438 36.0703C27.8594 36.0234 27.8672 35.9844 27.8672 35.9531C27.9141 35.7656 27.9453 35.6562 27.9609 35.625C27.9922 35.5938 28.0156 35.5625 28.0312 35.5312C28.0625 35.375 28.0703 35.2969 28.0547 35.2969C28.0391 35.2812 28.0391 35.2578 28.0547 35.2266C28.0859 35.1328 28.1406 35.0625 28.2188 35.0156C28.2344 34.9531 28.2578 34.9062 28.2891 34.875C28.3203 34.8438 28.3359 34.7891 28.3359 34.7109L28.4766 34.4531C28.5703 34.4375 28.625 34.3984 28.6406 34.3359C28.6562 34.2578 28.6719 34.1797 28.6875 34.1016C28.7812 34.0234 28.8438 33.9766 28.875 33.9609C28.9219 33.9453 28.9375 33.8984 28.9219 33.8203C29 33.7422 29.0703 33.6641 29.1328 33.5859C29.1953 33.5078 29.2422 33.3984 29.2734 33.2578C29.3672 33.2266 29.4219 33.1875 29.4375 33.1406C29.4531 33.0938 29.5 33.0781 29.5781 33.0938C29.6562 32.9844 29.7109 32.8984 29.7422 32.8359C29.8047 32.7422 29.8828 32.6641 29.9766 32.6016C30.0703 32.5391 30.1328 32.4453 30.1641 32.3203C30.2891 32.1953 30.3906 32.125 30.4688 32.1094C30.5781 32 30.6484 31.9375 30.6797 31.9219C30.7109 31.8906 30.7344 31.8516 30.75 31.8047C30.7812 31.7578 30.8125 31.7109 30.8438 31.6641C30.9531 31.6484 31.0469 31.5547 31.125 31.3828C31.2188 31.3672 31.2891 31.3281 31.3359 31.2656C31.3828 31.2031 31.4531 31.1562 31.5469 31.125C31.5625 31.0625 31.5938 31.0234 31.6406 31.0078C31.7031 30.9766 31.7422 30.9297 31.7578 30.8672C31.9766 30.7891 32.0938 30.7266 32.1094 30.6797C32.1406 30.6328 32.1953 30.6094 32.2734 30.6094C32.3672 30.5156 32.4141 30.4531 32.4141 30.4219C32.4297 30.375 32.4766 30.3516 32.5547 30.3516C32.6172 30.2578 32.6562 30.2031 32.6719 30.1875C32.6875 30.1719 32.7109 30.1641 32.7422 30.1641C32.8203 30.1172 32.8828 30.0703 32.9297 30.0234C32.9922 29.9609 33.0703 29.9141 33.1641 29.8828C33.2422 29.8359 33.3125 29.7891 33.375 29.7422C33.4375 29.6953 33.5156 29.6562 33.6094 29.625C33.7344 29.5 33.7969 29.4375 33.7969 29.4375C33.8125 29.4219 33.8281 29.3984 33.8438 29.3672C34 29.2891 34.1172 29.2109 34.1953 29.1328C34.3359 29.0391 34.4297 28.9922 34.4766 28.9922C34.5391 28.9766 34.5703 28.9375 34.5703 28.875C34.7266 28.9062 34.8438 28.8828 34.9219 28.8047C35.0156 28.7109 35.1484 28.6562 35.3203 28.6406C35.3984 28.5625 35.4922 28.4922 35.6016 28.4297C35.6797 28.3828 35.7422 28.3594 35.7891 28.3594C35.8359 28.3438 35.875 28.3125 35.9062 28.2656C36.0156 28.25 36.0859 28.2188 36.1172 28.1719C36.1641 28.125 36.2344 28.1094 36.3281 28.125C36.4688 28.0469 36.625 27.9844 36.7969 27.9375C36.9688 27.875 37.1172 27.8047 37.2422 27.7266C37.3672 27.7266 37.4766 27.7031 37.5703 27.6562C37.6797 27.6094 37.7656 27.5938 37.8281 27.6094C37.9062 27.6094 37.9766 27.5938 38.0391 27.5625C38.1016 27.5469 38.1562 27.5234 38.2031 27.4922C38.2656 27.4453 38.3281 27.4297 38.3906 27.4453C38.5938 27.3984 38.7188 27.3828 38.7656 27.3984C38.8125 27.3828 38.8516 27.3672 38.8828 27.3516C38.9141 27.3359 38.9531 27.3125 39 27.2812C39.1094 27.3125 39.2109 27.3125 39.3047 27.2812C39.3984 27.2344 39.4844 27.2266 39.5625 27.2578C39.6719 27.2422 39.7422 27.2266 39.7734 27.2109C39.8203 27.1953 39.8516 27.2031 39.8672 27.2344C39.8984 27.2031 39.9297 27.1953 39.9609 27.2109C40.0078 27.2109 40.0625 27.1953 40.125 27.1641C40.1562 27.2109 40.2109 27.2344 40.2891 27.2344C40.3672 27.2188 40.4453 27.2188 40.5234 27.2344C40.6797 27.2812 40.7578 27.2969 40.7578 27.2812C40.7578 27.25 40.7734 27.2266 40.8047 27.2109C40.8984 27.1797 40.9688 27.1797 41.0156 27.2109C41.0781 27.2422 41.1484 27.2422 41.2266 27.2109L41.5312 27.1406ZM47.625 38.7891C47.6562 38.7109 47.6875 38.6406 47.7188 38.5781C47.7656 38.5 47.8281 38.4453 47.9062 38.4141C47.9219 38.3203 47.9609 38.2578 48.0234 38.2266C48.0859 38.1953 48.125 38.1328 48.1406 38.0391C48.25 37.9766 48.3281 37.8984 48.375 37.8047C48.5156 37.7109 48.5859 37.6719 48.5859 37.6875C48.5859 37.6875 48.6016 37.6875 48.6328 37.6875C48.7734 37.5781 48.8594 37.5 48.8906 37.4531C48.9219 37.4062 48.9609 37.3672 49.0078 37.3359C49.1172 37.2734 49.1875 37.2266 49.2188 37.1953C49.25 37.1641 49.2812 37.1328 49.3125 37.1016C49.4375 37.0391 49.5078 37.0078 49.5234 37.0078C49.5547 37.0078 49.5859 37 49.6172 36.9844C49.7734 36.875 49.8672 36.8125 49.8984 36.7969C49.9297 36.7812 49.9531 36.75 49.9688 36.7031C50.2656 36.625 50.4844 36.5469 50.625 36.4688C50.7344 36.4375 50.8125 36.4297 50.8594 36.4453C50.9062 36.4453 50.9531 36.4375 51 36.4219C51.2344 36.3906 51.3828 36.3906 51.4453 36.4219C51.5234 36.4531 51.6016 36.4688 51.6797 36.4688C51.8047 36.4688 51.8828 36.4922 51.9141 36.5391C51.9453 36.5703 51.9844 36.5859 52.0312 36.5859C52.0781 36.7578 52.125 36.8672 52.1719 36.9141C52.2344 36.9453 52.3203 36.9688 52.4297 36.9844C52.6172 37.1094 52.7109 37.1953 52.7109 37.2422C52.8203 37.2891 52.9141 37.3438 52.9922 37.4062C53.0859 37.4688 53.1562 37.5625 53.2031 37.6875C53.3281 37.7656 53.4062 37.8203 53.4375 37.8516C53.4688 37.8828 53.4922 37.9219 53.5078 37.9688C53.6484 38.125 53.7266 38.2344 53.7422 38.2969C53.7734 38.3594 53.8125 38.4062 53.8594 38.4375C53.8906 38.5625 53.9141 38.6797 53.9297 38.7891C53.9453 38.8828 53.9375 38.9922 53.9062 39.1172C53.9531 39.3828 53.9062 39.5859 53.7656 39.7266C53.7344 39.9141 53.7344 40.0156 53.7656 40.0312C53.7969 40.0312 53.8047 40.0469 53.7891 40.0781C53.7578 40.1875 53.7344 40.2656 53.7188 40.3125C53.7031 40.3594 53.6875 40.4062 53.6719 40.4531C53.625 40.6094 53.6094 40.7031 53.625 40.7344C53.6406 40.75 53.6406 40.7734 53.625 40.8047C53.5156 40.9609 53.4531 41.0547 53.4375 41.0859C53.4219 41.1172 53.4141 41.1562 53.4141 41.2031C53.2578 41.2969 53.1797 41.3516 53.1797 41.3672C53.1953 41.3828 53.2031 41.4219 53.2031 41.4844C53.0625 41.6562 52.9844 41.7656 52.9688 41.8125C52.9688 41.8438 52.9375 41.8672 52.875 41.8828C52.8125 41.9766 52.7344 42.0703 52.6406 42.1641C52.5 42.2578 52.4062 42.3203 52.3594 42.3516C52.3281 42.3672 52.3125 42.3984 52.3125 42.4453C52.2188 42.5234 52.1641 42.5781 52.1484 42.6094C52.1328 42.6406 52.1172 42.6719 52.1016 42.7031C51.9453 42.75 51.8672 42.7812 51.8672 42.7969C51.8672 42.8125 51.8594 42.8203 51.8438 42.8203C51.7031 42.8828 51.6094 42.9375 51.5625 42.9844C51.5312 43.0156 51.4922 43.0469 51.4453 43.0781C51.3516 43.0781 51.2734 43.1094 51.2109 43.1719C51.1484 43.2188 51.0781 43.2578 51 43.2891C50.9531 43.3203 50.9062 43.3438 50.8594 43.3594C50.8125 43.375 50.7734 43.4062 50.7422 43.4531C50.4922 43.5312 50.2891 43.6172 50.1328 43.7109C49.9766 43.8047 49.8047 43.8203 49.6172 43.7578C49.4141 43.8047 49.3047 43.8203 49.2891 43.8047C49.2734 43.7891 49.25 43.7734 49.2188 43.7578C49.0781 43.8203 48.9844 43.8516 48.9375 43.8516C48.8906 43.8516 48.8281 43.8359 48.75 43.8047C48.5938 43.7578 48.4844 43.7344 48.4219 43.7344C48.2656 43.6406 48.1562 43.5859 48.0938 43.5703C48.0469 43.5391 48 43.5078 47.9531 43.4766C47.9062 43.4453 47.8516 43.4141 47.7891 43.3828C47.7422 43.3359 47.7188 43.2734 47.7188 43.1953C47.5938 43.0703 47.5312 43.0078 47.5312 43.0078C47.4531 42.8047 47.3828 42.6953 47.3203 42.6797C47.2891 42.5234 47.2578 42.4297 47.2266 42.3984C47.1797 42.2734 47.1484 42.2109 47.1328 42.2109C47.1328 42.1953 47.125 42.1641 47.1094 42.1172C47.1094 42.0859 47.1016 42.0391 47.0859 41.9766C47.0703 41.8984 47.0625 41.8359 47.0625 41.7891C47.0156 41.4766 46.9922 41.2578 46.9922 41.1328C47.0078 41.0078 47 40.8828 46.9688 40.7578C47 40.7266 47.0078 40.6953 46.9922 40.6641C46.9922 40.6172 47 40.5547 47.0156 40.4766C47.0312 40.3359 47.0469 40.2578 47.0625 40.2422C47.0781 40.2109 47.0859 40.1797 47.0859 40.1484C47.1016 40.0078 47.1328 39.875 47.1797 39.75C47.1953 39.7031 47.2109 39.6641 47.2266 39.6328C47.2578 39.5859 47.2656 39.5312 47.25 39.4688C47.3438 39.4219 47.3984 39.3516 47.4141 39.2578C47.4453 39.1484 47.4844 39.0547 47.5312 38.9766L47.625 38.7891ZM51.0703 38.1797C50.9766 38.1328 50.9219 38.1016 50.9062 38.0859C50.8906 38.0547 50.8672 38.0312 50.8359 38.0156C50.6641 37.9688 50.5625 37.9609 50.5312 37.9922C50.5156 38.0078 50.4922 38.0078 50.4609 37.9922C50.3828 37.9922 50.3047 37.9766 50.2266 37.9453C50.1484 37.9141 50.0859 37.9375 50.0391 38.0156C49.8672 38.0312 49.7734 38.0312 49.7578 38.0156C49.7109 38.0469 49.6562 38.0703 49.5938 38.0859C49.5469 38.1016 49.5078 38.125 49.4766 38.1562C49.4297 38.25 49.3906 38.3125 49.3594 38.3438C49.3281 38.3594 49.3203 38.3906 49.3359 38.4375C49.2891 38.5 49.2188 38.5781 49.125 38.6719C49.0781 38.9219 49.0312 39.0859 48.9844 39.1641C48.9375 39.2266 48.8828 39.2812 48.8203 39.3281C48.8359 39.4062 48.8359 39.4922 48.8203 39.5859C48.8203 39.6641 48.7969 39.7266 48.75 39.7734C48.6875 40.0078 48.6641 40.1484 48.6797 40.1953C48.7109 40.2266 48.7188 40.2812 48.7031 40.3594C48.6406 40.5625 48.6328 40.6641 48.6797 40.6641C48.7266 40.6484 48.7422 40.6641 48.7266 40.7109C48.7266 40.8828 48.7344 40.9766 48.75 40.9922C48.7812 40.9922 48.7969 41.0078 48.7969 41.0391L48.8672 41.3203C48.9297 41.4453 48.9531 41.5156 48.9375 41.5312C48.9219 41.5469 48.9141 41.5703 48.9141 41.6016C49.0078 41.7422 49.0625 41.8281 49.0781 41.8594C49.1094 41.8906 49.1406 41.9219 49.1719 41.9531C49.1875 42.0781 49.2031 42.1562 49.2188 42.1875C49.25 42.2031 49.25 42.2266 49.2188 42.2578C49.2969 42.2734 49.3594 42.2891 49.4062 42.3047C49.4688 42.3203 49.5156 42.3672 49.5469 42.4453C49.6719 42.4766 49.7422 42.5312 49.7578 42.6094C50.0078 42.6719 50.1719 42.7031 50.25 42.7031C50.3281 42.6875 50.4297 42.6641 50.5547 42.6328C50.7891 42.6484 50.9453 42.6406 51.0234 42.6094C51.1016 42.5625 51.1562 42.5078 51.1875 42.4453C51.25 42.3828 51.2969 42.3438 51.3281 42.3281C51.3594 42.2969 51.3906 42.2656 51.4219 42.2344C51.5 42.0938 51.5625 41.9922 51.6094 41.9297C51.6719 41.8516 51.6953 41.7656 51.6797 41.6719C51.9297 41.3438 52.0469 41.0234 52.0312 40.7109C52.0938 40.5234 52.1172 40.4219 52.1016 40.4062C52.0859 40.375 52.0781 40.3438 52.0781 40.3125C52.1406 40.2188 52.1562 40.1094 52.125 39.9844C52.1094 39.8438 52.0859 39.7266 52.0547 39.6328C52.0234 39.4609 52.0078 39.3672 52.0078 39.3516C52.0234 39.3203 52.0312 39.2969 52.0312 39.2812C51.9219 39.125 51.8594 39.0391 51.8438 39.0234C51.7656 38.8672 51.6953 38.7578 51.6328 38.6953C51.5703 38.6328 51.5156 38.5547 51.4688 38.4609C51.375 38.3828 51.3203 38.3359 51.3047 38.3203C51.2891 38.3047 51.2734 38.2812 51.2578 38.25L51.0703 38.1797ZM63.6094 44.2266C63.6406 44.3828 63.6484 44.4688 63.6328 44.4844C63.6172 44.4844 63.6172 44.5 63.6328 44.5312L63.6797 44.7891C63.7266 44.8516 63.7422 44.9062 63.7266 44.9531C63.7266 45 63.75 45.0391 63.7969 45.0703C63.8125 45.2109 63.8281 45.2969 63.8438 45.3281C63.8594 45.375 63.8828 45.4062 63.9141 45.4219C63.8984 45.5 63.8984 45.5547 63.9141 45.5859C63.9297 45.6172 63.9453 45.6484 63.9609 45.6797C64.0547 45.8047 64.1094 45.8672 64.125 45.8672C64.1406 45.8828 64.1484 45.9062 64.1484 45.9375C64.3672 46.1719 64.5938 46.3281 64.8281 46.4062L65.2266 46.5234C65.3828 46.4453 65.4609 46.4062 65.4609 46.4062C65.6016 46.3438 65.6719 46.3203 65.6719 46.3359C65.6875 46.3672 65.7109 46.375 65.7422 46.3594C65.8203 46.25 65.8672 46.1875 65.8828 46.1719C65.9141 46.1719 65.9297 46.1562 65.9297 46.125C66.0078 46.25 66.0469 46.3281 66.0469 46.3594C66.0469 46.4062 66.0234 46.4453 65.9766 46.4766C65.9766 46.5391 65.9609 46.5938 65.9297 46.6406C65.8984 46.7031 65.875 46.75 65.8594 46.7812C65.7969 46.8125 65.7422 46.8438 65.6953 46.875C65.6641 46.9219 65.625 46.9453 65.5781 46.9453C65.4688 47.0234 65.4062 47.0703 65.3906 47.0859C65.3906 47.1016 65.375 47.1094 65.3438 47.1094C65.1562 47.2031 65.0625 47.25 65.0625 47.25C65.0625 47.2656 65.0469 47.2891 65.0156 47.3203C64.9219 47.3203 64.8359 47.3516 64.7578 47.4141C64.6797 47.4766 64.6016 47.4922 64.5234 47.4609C64.2891 47.4766 64.1328 47.5 64.0547 47.5312C63.9922 47.5781 63.9297 47.6016 63.8672 47.6016C63.7422 47.5703 63.6562 47.5234 63.6094 47.4609C63.3594 47.3984 63.1562 47.375 63 47.3906C62.875 47.2656 62.8047 47.1953 62.7891 47.1797C62.7734 47.1641 62.75 47.1562 62.7188 47.1562C62.625 47.0469 62.5156 46.9531 62.3906 46.875C62.2969 46.6875 62.2344 46.5781 62.2031 46.5469C62.1719 46.5156 62.1484 46.4688 62.1328 46.4062C62.1016 46.2969 62.0781 46.2266 62.0625 46.1953C62.0469 46.1797 62.0391 46.1484 62.0391 46.1016C62.0234 45.9609 62 45.8516 61.9688 45.7734C61.9531 45.7109 61.9375 45.6406 61.9219 45.5625C61.9375 45.4219 61.9297 45.3203 61.8984 45.2578C61.8984 45.0859 61.8828 44.9531 61.8516 44.8594C61.8359 44.7656 61.8281 44.6797 61.8281 44.6016C61.8281 44.5391 61.8359 44.4766 61.8516 44.4141C61.8672 44.3359 61.8516 44.2812 61.8047 44.25C61.8203 44.0781 61.8281 43.9922 61.8281 43.9922C61.8438 43.9766 61.8516 43.9531 61.8516 43.9219C61.8516 43.875 61.8438 43.8281 61.8281 43.7812C61.8125 43.7344 61.7969 43.6797 61.7812 43.6172C61.7656 43.5391 61.7578 43.4609 61.7578 43.3828C61.7734 43.2891 61.7734 43.2031 61.7578 43.125C61.7578 43.0781 61.75 43.0312 61.7344 42.9844C61.7344 42.9219 61.7344 42.8672 61.7344 42.8203C61.75 42.6641 61.75 42.5703 61.7344 42.5391C61.7188 42.5078 61.7109 42.4688 61.7109 42.4219C61.7109 42.2812 61.7031 42.2031 61.6875 42.1875C61.6719 42.1719 61.6641 42.1562 61.6641 42.1406C61.6797 42.0469 61.6797 41.9922 61.6641 41.9766C61.6484 41.9453 61.6406 41.9141 61.6406 41.8828C61.6094 41.7422 61.5938 41.6641 61.5938 41.6484C61.6094 41.6172 61.6172 41.5859 61.6172 41.5547C61.5859 41.4297 61.5781 41.3516 61.5938 41.3203C61.6094 41.2734 61.6016 41.2266 61.5703 41.1797C61.5703 41.0234 61.5625 40.9375 61.5469 40.9219C61.5312 40.9062 61.5234 40.8906 61.5234 40.875C61.5391 40.7812 61.5391 40.7109 61.5234 40.6641C61.5234 40.6172 61.5234 40.5781 61.5234 40.5469C61.4609 40.3594 61.4297 40.2344 61.4297 40.1719C61.4297 40.1094 61.4219 40.0469 61.4062 39.9844C61.375 39.9062 61.3438 39.8359 61.3125 39.7734C61.2969 39.6953 61.2812 39.6172 61.2656 39.5391C61.2188 39.4609 61.1719 39.3984 61.125 39.3516C61.0781 39.2891 61.0703 39.2266 61.1016 39.1641C60.9609 39.1172 60.8906 39.0859 60.8906 39.0703C60.9062 39.0547 60.8984 39.0469 60.8672 39.0469C60.7266 39.0625 60.6328 39.0859 60.5859 39.1172C60.5234 39.2734 60.4609 39.375 60.3984 39.4219C60.3359 39.4688 60.2891 39.5391 60.2578 39.6328C60.1641 39.7578 60.1094 39.8359 60.0938 39.8672C60.0781 39.8828 60.0703 39.9297 60.0703 40.0078C59.9766 40.0234 59.9141 40.0703 59.8828 40.1484C59.8672 40.2266 59.8125 40.2734 59.7188 40.2891C59.7031 40.4766 59.6797 40.5859 59.6484 40.6172C59.6328 40.6328 59.625 40.6719 59.625 40.7344C59.5469 40.7656 59.5 40.8125 59.4844 40.875C59.4688 40.9375 59.4453 41.0078 59.4141 41.0859C59.3984 41.1328 59.3672 41.1797 59.3203 41.2266C59.2891 41.2578 59.2734 41.3125 59.2734 41.3906C59.1953 41.4844 59.1484 41.5469 59.1328 41.5781C59.1172 41.5938 59.1172 41.625 59.1328 41.6719C59.0391 41.8125 58.9922 41.8906 58.9922 41.9062C59.0078 41.9219 59.0078 41.9375 58.9922 41.9531C58.9141 42.0938 58.875 42.1719 58.875 42.1875C58.8438 42.25 58.8281 42.3047 58.8281 42.3516C58.8438 42.3984 58.8438 42.4531 58.8281 42.5156C58.75 42.6719 58.7031 42.7734 58.6875 42.8203C58.6719 42.8516 58.6484 42.8906 58.6172 42.9375C58.6484 43.0156 58.6484 43.0859 58.6172 43.1484C58.6016 43.1953 58.5781 43.2422 58.5469 43.2891C58.4688 43.4609 58.4297 43.5938 58.4297 43.6875C58.4297 43.7656 58.4062 43.8281 58.3594 43.875C58.3594 44.0156 58.3359 44.1172 58.2891 44.1797C58.2578 44.3359 58.25 44.4297 58.2656 44.4609C58.2812 44.4766 58.2656 44.4766 58.2188 44.4609C58.2656 44.5547 58.3047 44.6953 58.3359 44.8828C58.3359 44.9453 58.3281 45.0156 58.3125 45.0938C58.3125 45.1719 58.3281 45.2344 58.3594 45.2812C58.4219 45.4688 58.4375 45.5781 58.4062 45.6094C58.3906 45.6406 58.375 45.6797 58.3594 45.7266C58.2656 45.8203 58.1953 45.8906 58.1484 45.9375C57.9922 46.0156 57.9062 46.0625 57.8906 46.0781C57.7656 46.1875 57.6953 46.2578 57.6797 46.2891C57.6797 46.3203 57.6641 46.3516 57.6328 46.3828C57.4766 46.4453 57.3984 46.4922 57.3984 46.5234C57.3984 46.5547 57.3828 46.5703 57.3516 46.5703C57.2266 46.6641 57.1016 46.7266 56.9766 46.7578C56.8672 46.7891 56.7734 46.7656 56.6953 46.6875C56.6484 46.5625 56.6094 46.4922 56.5781 46.4766C56.5625 46.4609 56.5391 46.4375 56.5078 46.4062C56.6016 46.2656 56.6328 46.1797 56.6016 46.1484C56.5859 46.1172 56.5781 46.0859 56.5781 46.0547C56.5938 45.8359 56.5938 45.6641 56.5781 45.5391C56.5781 45.4297 56.5859 45.3359 56.6016 45.2578C56.6172 45.1016 56.6172 45.0078 56.6016 44.9766C56.5859 44.9453 56.5703 44.9141 56.5547 44.8828C56.6016 44.7422 56.6094 44.6406 56.5781 44.5781C56.5469 44.5 56.5312 44.4219 56.5312 44.3438C56.5312 44.2812 56.5391 44.2188 56.5547 44.1562C56.5703 44.0938 56.5547 44.0391 56.5078 43.9922C56.4922 43.8203 56.4922 43.7344 56.5078 43.7344C56.5234 43.7344 56.5312 43.7188 56.5312 43.6875C56.5469 43.5 56.5312 43.3203 56.4844 43.1484C56.4531 42.9609 56.4297 42.7734 56.4141 42.5859C56.4297 42.4141 56.4297 42.3203 56.4141 42.3047C56.4141 42.2734 56.3984 42.25 56.3672 42.2344C56.3984 42.1562 56.3984 42.0859 56.3672 42.0234C56.3516 41.9453 56.3516 41.8594 56.3672 41.7656C56.3203 41.5625 56.2969 41.4453 56.2969 41.4141C56.3125 41.3828 56.3047 41.3281 56.2734 41.25C56.2422 41.0625 56.2109 40.9531 56.1797 40.9219C56.1641 40.8906 56.1484 40.8594 56.1328 40.8281C56.1328 40.75 56.1328 40.6641 56.1328 40.5703C56.1328 40.4766 56.1172 40.3906 56.0859 40.3125L56.0391 39.9844C56.0234 39.9219 56 39.8672 55.9688 39.8203C55.9375 39.7578 55.9297 39.6953 55.9453 39.6328C55.8828 39.4609 55.8438 39.3672 55.8281 39.3516C55.8125 39.3359 55.8125 39.2969 55.8281 39.2344C55.75 39.125 55.7188 39.0625 55.7344 39.0469C55.7656 39.0156 55.7656 38.9844 55.7344 38.9531C55.5469 38.875 55.4375 38.8672 55.4062 38.9297C55.3906 38.9766 55.3438 38.9922 55.2656 38.9766C55.1094 39.0547 55.0078 39.1172 54.9609 39.1641C54.9297 39.1953 54.8906 39.2266 54.8438 39.2578C54.7656 39.2578 54.7031 39.25 54.6562 39.2344C54.6094 39.2188 54.5547 39.2031 54.4922 39.1875C54.4609 39.1094 54.4531 39.0391 54.4688 38.9766C54.4844 38.9141 54.5078 38.8438 54.5391 38.7656C54.6484 38.7031 54.7109 38.6641 54.7266 38.6484C54.7422 38.6328 54.75 38.6016 54.75 38.5547C54.8906 38.4766 54.9766 38.4062 55.0078 38.3438C55.0547 38.2812 55.0938 38.2109 55.125 38.1328C55.2812 38.1016 55.3906 38.0625 55.4531 38.0156C55.5312 37.9688 55.5938 37.9062 55.6406 37.8281C55.7188 37.8125 55.7812 37.7812 55.8281 37.7344C55.875 37.6875 55.9141 37.6328 55.9453 37.5703C56.0703 37.5859 56.1406 37.5781 56.1562 37.5469C56.1719 37.5156 56.1953 37.4766 56.2266 37.4297C56.3047 37.4297 56.3672 37.4141 56.4141 37.3828C56.4609 37.3359 56.5 37.2969 56.5312 37.2656C56.6094 37.2969 56.6797 37.3125 56.7422 37.3125C56.8047 37.3125 56.8594 37.3281 56.9062 37.3594C57.0312 37.4062 57.1016 37.4453 57.1172 37.4766C57.1328 37.5078 57.1562 37.5312 57.1875 37.5469C57.1562 37.7031 57.1797 37.8359 57.2578 37.9453C57.3516 38.0547 57.4062 38.1953 57.4219 38.3672C57.4688 38.5234 57.5078 38.6406 57.5391 38.7188C57.5859 38.7969 57.6172 38.875 57.6328 38.9531C57.6172 39.2188 57.625 39.4062 57.6562 39.5156C57.7031 39.625 57.7344 39.7422 57.75 39.8672C57.7031 39.9766 57.6953 40.0547 57.7266 40.1016C57.7578 40.1328 57.7812 40.1719 57.7969 40.2188C57.7969 40.375 57.8047 40.4766 57.8203 40.5234C57.8359 40.5547 57.8281 40.5703 57.7969 40.5703C57.8281 40.7891 57.8594 40.9531 57.8906 41.0625C57.9219 41.1719 57.9375 41.2734 57.9375 41.3672C58.0156 41.3672 58.0625 41.3516 58.0781 41.3203C58.0938 41.2734 58.1172 41.2344 58.1484 41.2031C58.1641 41.1719 58.1875 41.1172 58.2188 41.0391C58.25 40.9453 58.2812 40.8906 58.3125 40.875C58.3438 40.8438 58.375 40.7891 58.4062 40.7109C58.4375 40.6328 58.4609 40.5469 58.4766 40.4531C58.5547 40.3125 58.6172 40.2422 58.6641 40.2422C58.7109 40.2266 58.7422 40.1953 58.7578 40.1484C58.8047 40.0703 58.8281 40.0078 58.8281 39.9609C58.8438 39.9141 58.8828 39.8984 58.9453 39.9141C59.0078 39.7891 59.0469 39.7188 59.0625 39.7031C59.0938 39.6875 59.1094 39.6719 59.1094 39.6562C59.125 39.5781 59.1562 39.5234 59.2031 39.4922C59.2656 39.4609 59.2812 39.4141 59.25 39.3516C59.4062 39.2109 59.5078 39.125 59.5547 39.0938C59.6016 39.0625 59.6484 39.0234 59.6953 38.9766C59.6797 38.8984 59.6953 38.8594 59.7422 38.8594C59.7891 38.8594 59.8125 38.8203 59.8125 38.7422C59.9844 38.6172 60.0859 38.5391 60.1172 38.5078C60.1641 38.4609 60.2109 38.4219 60.2578 38.3906C60.3828 38.2812 60.4453 38.2188 60.4453 38.2031C60.5859 38.1719 60.6719 38.1172 60.7031 38.0391C60.8594 37.9922 60.9609 37.9453 61.0078 37.8984C61.1953 37.8203 61.3203 37.7656 61.3828 37.7344C61.4609 37.7031 61.5234 37.6797 61.5703 37.6641C61.7109 37.6641 61.7891 37.6719 61.8047 37.6875C61.8359 37.6875 61.875 37.6953 61.9219 37.7109C62.1094 37.7578 62.2109 37.7734 62.2266 37.7578C62.2422 37.7422 62.2656 37.7344 62.2969 37.7344C62.3906 37.875 62.4531 37.9375 62.4844 37.9219C62.5625 38.0781 62.625 38.1641 62.6719 38.1797C62.6875 38.2578 62.7188 38.3203 62.7656 38.3672C62.8125 38.3984 62.8359 38.4688 62.8359 38.5781C62.9141 38.7344 62.9531 38.8281 62.9531 38.8594C62.9531 38.875 62.9609 38.9141 62.9766 38.9766C63.0234 39.1016 63.0469 39.1953 63.0469 39.2578C63.0469 39.3047 63.0547 39.3672 63.0703 39.4453C63.1172 39.5859 63.1406 39.6953 63.1406 39.7734C63.1406 39.8359 63.1484 39.9062 63.1641 39.9844C63.1797 40.0469 63.1953 40.1094 63.2109 40.1719C63.2422 40.2188 63.25 40.2734 63.2344 40.3359L63.1641 40.7109C63.2422 40.8828 63.2891 41.0078 63.3047 41.0859C63.3359 41.1484 63.3594 41.2188 63.375 41.2969C63.4062 41.4688 63.4297 41.5938 63.4453 41.6719C63.4609 41.7344 63.4609 41.7969 63.4453 41.8594C63.4141 41.9844 63.3984 42.0781 63.3984 42.1406C63.4141 42.2031 63.4219 42.25 63.4219 42.2812C63.4688 42.4375 63.4844 42.5625 63.4688 42.6562C63.4688 42.7344 63.4844 42.8047 63.5156 42.8672C63.5156 42.9922 63.5156 43.0781 63.5156 43.125C63.5156 43.1719 63.5156 43.2188 63.5156 43.2656C63.5312 43.3906 63.5391 43.4766 63.5391 43.5234C63.5391 43.6797 63.5391 43.7891 63.5391 43.8516L63.6094 44.2266ZM67.5234 30.4688C67.6016 30.7031 67.6719 30.8281 67.7344 30.8438C67.7969 30.9844 67.8672 31.1016 67.9453 31.1953C67.9297 31.2734 67.9375 31.3359 67.9688 31.3828C68 31.4141 68.0312 31.4453 68.0625 31.4766C68.0469 31.6484 68.0859 31.7969 68.1797 31.9219C68.1484 32 68.1484 32.0547 68.1797 32.0859C68.2109 32.1172 68.1953 32.1484 68.1328 32.1797C68.2422 32.3359 68.2812 32.4141 68.25 32.4141C68.2344 32.4141 68.2266 32.4297 68.2266 32.4609C68.2578 32.5078 68.2656 32.5938 68.25 32.7188C68.2344 32.8281 68.2422 32.8984 68.2734 32.9297C68.3516 32.9297 68.4141 32.9297 68.4609 32.9297C68.5078 32.9297 68.5703 32.9219 68.6484 32.9062C68.8359 32.8906 68.9375 32.875 68.9531 32.8594C68.9844 32.8438 69.0156 32.8281 69.0469 32.8125C69.3594 32.7969 69.5469 32.8047 69.6094 32.8359C69.6875 32.8203 69.75 32.7969 69.7969 32.7656C69.8594 32.7344 69.9297 32.7344 70.0078 32.7656C70.0859 32.75 70.1406 32.7344 70.1719 32.7188C70.2188 32.7031 70.2578 32.7109 70.2891 32.7422C70.3359 32.6797 70.3984 32.6562 70.4766 32.6719C70.5547 32.6719 70.6094 32.6484 70.6406 32.6016C70.75 32.5859 70.8281 32.5781 70.875 32.5781C70.9375 32.5625 71 32.5312 71.0625 32.4844C71.25 32.625 71.3281 32.7969 71.2969 33C71.1406 33.1406 71.0469 33.2031 71.0156 33.1875C71 33.1719 70.9688 33.1719 70.9219 33.1875C70.8594 33.2656 70.8203 33.3203 70.8047 33.3516C70.7891 33.3672 70.7578 33.3828 70.7109 33.3984C70.5547 33.4922 70.4688 33.5547 70.4531 33.5859C70.4375 33.6016 70.4141 33.6172 70.3828 33.6328C70.2578 33.7578 70.1797 33.8203 70.1484 33.8203C70.1172 33.8047 70.0859 33.8047 70.0547 33.8203C69.8672 33.8984 69.7422 33.9531 69.6797 33.9844C69.6172 34 69.5312 33.9922 69.4219 33.9609C69.2031 33.9922 69.0625 34.0234 69 34.0547C68.9375 34.0703 68.8672 34.0781 68.7891 34.0781C68.7422 34.0781 68.6953 34.0781 68.6484 34.0781C68.6016 34.0625 68.5547 34.0547 68.5078 34.0547C68.3984 34.0703 68.3203 34.1016 68.2734 34.1484C68.2422 34.1797 68.2109 34.2344 68.1797 34.3125C68.1641 34.3438 68.1484 34.3906 68.1328 34.4531C68.1172 34.5156 68.1094 34.5859 68.1094 34.6641C68.1562 34.8516 68.1719 34.9609 68.1562 34.9922C68.1406 35.0234 68.125 35.0625 68.1094 35.1094C68.125 35.1562 68.1406 35.2031 68.1562 35.25C68.1719 35.2812 68.1797 35.3281 68.1797 35.3906C68.1797 35.4688 68.1719 35.5391 68.1562 35.6016C68.1562 35.6641 68.1641 35.7422 68.1797 35.8359C68.1953 35.9453 68.1953 36.0078 68.1797 36.0234C68.1641 36.0391 68.1562 36.0625 68.1562 36.0938C68.1719 36.25 68.1641 36.3828 68.1328 36.4922C68.1172 36.5859 68.1172 36.6719 68.1328 36.75C68.1484 36.8906 68.1484 36.9766 68.1328 37.0078C68.1172 37.0234 68.1016 37.0469 68.0859 37.0781C68.0547 37.1719 68.0547 37.2812 68.0859 37.4062C68.1328 37.5156 68.1172 37.6094 68.0391 37.6875C68.0859 37.9062 68.0859 38.1016 68.0391 38.2734C67.9922 38.4453 68.0078 38.5781 68.0859 38.6719C68.0391 38.8125 68.0156 38.8906 68.0156 38.9062C68.0312 38.9062 68.0391 38.9141 68.0391 38.9297C68.0078 39.1016 67.9922 39.1953 67.9922 39.2109C67.8984 39.3984 67.8672 39.5156 67.8984 39.5625C67.9297 39.6094 67.9219 39.6484 67.875 39.6797C67.8906 39.7578 67.8984 39.8281 67.8984 39.8906C67.9141 39.9531 67.9219 40.0312 67.9219 40.125C67.9219 40.1562 67.9141 40.2031 67.8984 40.2656C67.8828 40.3125 67.875 40.3516 67.875 40.3828C67.875 40.6016 67.875 40.75 67.875 40.8281C67.8906 40.9062 67.875 40.9844 67.8281 41.0625C67.8438 41.2344 67.8594 41.3828 67.875 41.5078C67.8906 41.6172 67.9141 41.7031 67.9453 41.7656C67.8984 41.9531 67.8828 42.0781 67.8984 42.1406C67.9141 42.2969 67.9141 42.3828 67.8984 42.3984C67.8828 42.4141 67.875 42.4297 67.875 42.4453C67.875 42.6016 67.8828 42.7109 67.8984 42.7734C67.9141 42.9297 67.9297 43.0156 67.9453 43.0312C67.9609 43.0469 67.9688 43.0625 67.9688 43.0781C67.9531 43.1719 67.9531 43.2422 67.9688 43.2891C67.9844 43.3203 67.9922 43.3438 67.9922 43.3594C67.9922 43.4688 68.0078 43.5391 68.0391 43.5703C68.0859 43.6016 68.1016 43.6484 68.0859 43.7109C68.1172 43.8203 68.1406 43.8828 68.1562 43.8984C68.1719 43.9141 68.1797 43.9453 68.1797 43.9922C68.2578 44.1328 68.3047 44.2188 68.3203 44.25C68.3516 44.2656 68.375 44.2891 68.3906 44.3203C68.5 44.4922 68.5781 44.5859 68.625 44.6016C68.6875 44.6172 68.7266 44.6562 68.7422 44.7188C68.8672 44.8438 68.9375 44.9062 68.9531 44.9062C69.0312 44.8906 69.0938 44.8984 69.1406 44.9297C69.1875 44.9609 69.25 44.9688 69.3281 44.9531C69.5 45.0469 69.6094 45.0781 69.6562 45.0469C69.7031 45.0156 69.7422 45.0156 69.7734 45.0469C70.0547 44.9531 70.2188 44.8359 70.2656 44.6953C70.3438 44.6953 70.3984 44.6719 70.4297 44.625C70.4766 44.5625 70.5547 44.5312 70.6641 44.5312C70.7109 44.5 70.7422 44.4609 70.7578 44.4141C70.7891 44.3672 70.8203 44.3281 70.8516 44.2969C70.9141 44.3125 70.9609 44.3203 70.9922 44.3203C71.0234 44.3047 71.0703 44.2969 71.1328 44.2969C71.1641 44.3906 71.1406 44.4375 71.0625 44.4375C70.9844 44.4375 70.9531 44.4844 70.9688 44.5781C70.875 44.7031 70.8125 44.7891 70.7812 44.8359C70.75 44.8828 70.7188 44.9219 70.6875 44.9531C70.5 45.0781 70.3438 45.1719 70.2188 45.2344C70.0938 45.3125 69.9922 45.4141 69.9141 45.5391C69.8359 45.5391 69.7656 45.5469 69.7031 45.5625C69.6406 45.5781 69.5625 45.5938 69.4688 45.6094C69.3125 45.7031 69.2344 45.7656 69.2344 45.7969C69.2344 45.8281 69.2188 45.8516 69.1875 45.8672C69.1562 45.8984 69.1094 45.9141 69.0469 45.9141C68.9844 45.9141 68.9219 45.9297 68.8594 45.9609C68.6875 46.0391 68.5938 46.0703 68.5781 46.0547C68.5625 46.0391 68.5391 46.0312 68.5078 46.0312C68.3828 46.0781 68.2969 46.1016 68.25 46.1016C68.2031 46.1016 68.1641 46.1172 68.1328 46.1484C68.0391 46.1328 67.9453 46.1172 67.8516 46.1016C67.7578 46.1016 67.6953 46.0625 67.6641 45.9844C67.5547 46 67.4766 45.9844 67.4297 45.9375C67.3984 45.8906 67.3672 45.8438 67.3359 45.7969C67.1953 45.75 67.1172 45.7031 67.1016 45.6562C67.0859 45.625 67.0391 45.6094 66.9609 45.6094C66.8516 45.4531 66.7891 45.3594 66.7734 45.3281C66.7578 45.3125 66.7422 45.2891 66.7266 45.2578C66.6484 45.1797 66.5938 45.0938 66.5625 45C66.5469 44.8906 66.4844 44.8125 66.375 44.7656C66.3594 44.5781 66.3438 44.4766 66.3281 44.4609C66.3125 44.4297 66.3047 44.3984 66.3047 44.3672C66.2422 44.2578 66.2344 44.1641 66.2812 44.0859C66.2344 44.0234 66.2188 43.9609 66.2344 43.8984C66.2656 43.8359 66.2422 43.7812 66.1641 43.7344C66.2266 43.7031 66.25 43.6641 66.2344 43.6172C66.2188 43.5703 66.2109 43.4922 66.2109 43.3828C66.2266 43.2578 66.2266 43.1875 66.2109 43.1719C66.1953 43.1406 66.1797 43.0938 66.1641 43.0312C66.1641 42.7656 66.1719 42.5703 66.1875 42.4453C66.2031 42.3047 66.1875 42.1953 66.1406 42.1172C66.1875 42.0078 66.2031 41.9297 66.1875 41.8828C66.1719 41.8203 66.1641 41.7734 66.1641 41.7422C66.1641 41.6641 66.1719 41.5938 66.1875 41.5312C66.2031 41.4531 66.1953 41.3828 66.1641 41.3203C66.1953 41.1797 66.2188 41.0859 66.2344 41.0391C66.2656 40.9766 66.2891 40.9141 66.3047 40.8516C66.2734 40.6797 66.2734 40.5547 66.3047 40.4766C66.3359 40.3828 66.3516 40.2969 66.3516 40.2188C66.3672 40.0312 66.3672 39.9062 66.3516 39.8438C66.3516 39.7656 66.3594 39.6875 66.375 39.6094C66.375 39.4531 66.3906 39.3438 66.4219 39.2812C66.4062 39.1094 66.4141 38.9922 66.4453 38.9297C66.4766 38.8672 66.4766 38.8125 66.4453 38.7656C66.4609 38.625 66.4766 38.5312 66.4922 38.4844C66.5078 38.4219 66.5156 38.375 66.5156 38.3438C66.5156 38.2969 66.5078 38.25 66.4922 38.2031C66.4766 38.1406 66.4688 38.0859 66.4688 38.0391C66.4688 37.8828 66.4922 37.75 66.5391 37.6406C66.5859 37.5156 66.5859 37.4219 66.5391 37.3594C66.5859 37.3125 66.6016 37.2578 66.5859 37.1953C66.5703 37.1172 66.5625 37.0391 66.5625 36.9609C66.5625 36.7734 66.5625 36.6562 66.5625 36.6094C66.5781 36.5156 66.5859 36.4531 66.5859 36.4219C66.5859 36.3906 66.5938 36.3594 66.6094 36.3281C66.5938 36.25 66.5938 36.1719 66.6094 36.0938C66.625 36 66.6172 35.9141 66.5859 35.8359C66.6328 35.7266 66.6484 35.6172 66.6328 35.5078C66.6172 35.3828 66.6328 35.2891 66.6797 35.2266C66.6484 35.1641 66.6484 35.1094 66.6797 35.0625C66.7109 35 66.7266 34.9453 66.7266 34.8984C66.7109 34.7891 66.7109 34.7109 66.7266 34.6641C66.7422 34.6172 66.75 34.5781 66.75 34.5469C66.5312 34.4219 66.3516 34.3906 66.2109 34.4531C66.0703 34.5 65.9297 34.5 65.7891 34.4531C65.6328 34.5 65.5078 34.5312 65.4141 34.5469C65.3359 34.5469 65.2578 34.5469 65.1797 34.5469C64.9766 34.5781 64.8672 34.5938 64.8516 34.5938C64.6953 34.5625 64.6094 34.5625 64.5938 34.5938C64.5781 34.625 64.5547 34.6406 64.5234 34.6406C64.4297 34.5 64.375 34.4297 64.3594 34.4297C64.3438 34.4297 64.3281 34.4141 64.3125 34.3828C64.3125 34.1953 64.3359 34.0781 64.3828 34.0312C64.4141 33.9844 64.4688 33.9531 64.5469 33.9375C64.6562 33.8438 64.6953 33.7656 64.6641 33.7031C64.8516 33.6562 64.9609 33.5703 64.9922 33.4453C65.0703 33.4297 65.1406 33.4141 65.2031 33.3984C65.2656 33.3672 65.3125 33.3125 65.3438 33.2344C65.6094 33.25 65.7969 33.2344 65.9062 33.1875C65.9375 33.1875 65.9766 33.1875 66.0234 33.1875C66.0859 33.1719 66.1328 33.1562 66.1641 33.1406C66.2109 33.1406 66.2891 33.1562 66.3984 33.1875C66.5078 33.2031 66.5859 33.2031 66.6328 33.1875C66.6484 33.0938 66.6562 32.9453 66.6562 32.7422C66.6719 32.5391 66.6484 32.4141 66.5859 32.3672C66.5078 32.2578 66.4609 32.1641 66.4453 32.0859C66.4453 31.9922 66.4062 31.9297 66.3281 31.8984C66.2031 31.8047 66.1016 31.75 66.0234 31.7344C65.9453 31.7188 65.8906 31.7266 65.8594 31.7578C65.7188 31.8203 65.625 31.8672 65.5781 31.8984C65.5469 31.9141 65.5 31.9297 65.4375 31.9453L65.0859 32.0859C65.0547 32.0391 65.0234 32 64.9922 31.9688C64.9609 31.9219 64.9453 31.8594 64.9453 31.7812C64.9922 31.6719 65.0312 31.6094 65.0625 31.5938C65.0938 31.5781 65.1094 31.5391 65.1094 31.4766C65.25 31.4297 65.3438 31.3359 65.3906 31.1953C65.4844 31.1484 65.5703 31.1094 65.6484 31.0781C65.7422 31.0312 65.7969 30.9531 65.8125 30.8438C65.9062 30.875 65.9922 30.8672 66.0703 30.8203C66.1641 30.7734 66.2266 30.7109 66.2578 30.6328C66.3984 30.6016 66.4844 30.5859 66.5156 30.5859C66.5625 30.5703 66.5859 30.5469 66.5859 30.5156C66.7734 30.4531 66.875 30.4297 66.8906 30.4453C66.9219 30.4453 66.9531 30.4375 66.9844 30.4219C67.1719 30.3906 67.2656 30.3906 67.2656 30.4219C67.2656 30.4375 67.2734 30.4531 67.2891 30.4688H67.5234ZM77.6719 37.9688C77.6406 38.1562 77.625 38.2578 77.625 38.2734C77.6406 38.2891 77.6484 38.3047 77.6484 38.3203C77.6328 38.4453 77.625 38.5312 77.625 38.5781C77.6406 38.625 77.6406 38.6719 77.625 38.7188C77.6094 38.75 77.5781 38.7891 77.5312 38.8359C77.5 38.8672 77.5 38.9141 77.5312 38.9766C77.4375 39.1016 77.4062 39.1719 77.4375 39.1875C77.4688 39.2031 77.4844 39.2188 77.4844 39.2344C77.5 39.4062 77.5 39.5156 77.4844 39.5625C77.4688 39.6094 77.4609 39.6484 77.4609 39.6797C77.4609 39.8828 77.4453 40 77.4141 40.0312C77.4297 40.125 77.4219 40.2109 77.3906 40.2891C77.375 40.3672 77.3906 40.4297 77.4375 40.4766C77.4531 40.6484 77.4531 40.7578 77.4375 40.8047C77.4375 40.8359 77.4531 40.875 77.4844 40.9219C77.4219 41.1094 77.3984 41.2188 77.4141 41.25C77.4766 41.4219 77.5078 41.5469 77.5078 41.625C77.5078 41.6875 77.5312 41.75 77.5781 41.8125C77.5312 41.9375 77.5234 42.0547 77.5547 42.1641C77.5859 42.2734 77.6094 42.3906 77.625 42.5156C77.6094 42.6875 77.6094 42.7812 77.625 42.7969C77.6406 42.7969 77.6484 42.8125 77.6484 42.8438C77.6797 42.9219 77.6953 43.0156 77.6953 43.125C77.6953 43.2188 77.7188 43.2969 77.7656 43.3594C77.7656 43.5781 77.8203 43.7109 77.9297 43.7578C77.9141 43.8672 77.9219 43.9297 77.9531 43.9453C77.9844 43.9609 78 43.9844 78 44.0156C77.9688 44.0938 77.9766 44.1562 78.0234 44.2031C78.0703 44.2344 78.0703 44.2734 78.0234 44.3203C78.0859 44.3516 78.1484 44.375 78.2109 44.3906C78.2734 44.3906 78.3203 44.4141 78.3516 44.4609C78.4453 44.4609 78.5234 44.4766 78.5859 44.5078C78.6641 44.5391 78.7422 44.5312 78.8203 44.4844C78.9453 44.4219 79.0234 44.3594 79.0547 44.2969C79.1641 44.2969 79.2422 44.2812 79.2891 44.25C79.3516 44.2188 79.4141 44.1875 79.4766 44.1562C79.5234 44.0938 79.5625 44.0625 79.5938 44.0625C79.625 44.0469 79.6641 44.0391 79.7109 44.0391C79.6797 44.1016 79.6484 44.1562 79.6172 44.2031C79.5859 44.25 79.5859 44.3203 79.6172 44.4141C79.5391 44.4453 79.4609 44.4844 79.3828 44.5312C79.3203 44.5625 79.2656 44.6172 79.2188 44.6953C79.0625 44.8203 78.9688 44.8984 78.9375 44.9297C78.9062 44.9609 78.8594 44.9766 78.7969 44.9766C78.6406 45.1172 78.5625 45.2188 78.5625 45.2812C78.5156 45.3125 78.4609 45.3281 78.3984 45.3281C78.3516 45.3438 78.3125 45.3672 78.2812 45.3984C78.1875 45.5078 78.125 45.5625 78.0938 45.5625C78.0781 45.5625 78.0625 45.5859 78.0469 45.6328C77.8281 45.6797 77.6797 45.6953 77.6016 45.6797C77.5391 45.6797 77.4688 45.6797 77.3906 45.6797C77.2344 45.6484 77.1328 45.6016 77.0859 45.5391C77.0391 45.4922 76.9844 45.4922 76.9219 45.5391C76.8906 45.4297 76.8125 45.3828 76.6875 45.3984C76.6094 45.3047 76.5547 45.2266 76.5234 45.1641C76.5078 45.1172 76.4688 45.0781 76.4062 45.0469C76.3906 45.0156 76.3828 44.9766 76.3828 44.9297C76.3828 44.8672 76.375 44.8203 76.3594 44.7891C76.3438 44.7578 76.3203 44.7109 76.2891 44.6484C76.2734 44.5703 76.2734 44.5 76.2891 44.4375C76.1953 44.1719 76.125 43.9844 76.0781 43.875C76.0469 43.7656 76.0469 43.6641 76.0781 43.5703C76.0469 43.4453 76.0234 43.3672 76.0078 43.3359C75.9922 43.2891 75.9844 43.2578 75.9844 43.2422C75.9844 43.1484 75.9766 43.0703 75.9609 43.0078C75.9609 42.9453 75.9609 42.8672 75.9609 42.7734C75.9766 42.5703 75.9688 42.4375 75.9375 42.375C75.9219 42.2969 75.9141 42.2188 75.9141 42.1406C75.9297 41.9688 75.9297 41.875 75.9141 41.8594C75.9141 41.8438 75.9141 41.8203 75.9141 41.7891C75.9297 41.6484 75.9297 41.5625 75.9141 41.5312C75.8984 41.5 75.8906 41.4688 75.8906 41.4375C75.7188 41.5312 75.6094 41.6016 75.5625 41.6484C75.5312 41.6797 75.5 41.7188 75.4688 41.7656C75.4375 41.8594 75.3984 41.9219 75.3516 41.9531C75.3047 41.9688 75.2656 41.9922 75.2344 42.0234C75.1406 42.1016 75.0859 42.1641 75.0703 42.2109C75.0703 42.2578 75.0547 42.2969 75.0234 42.3281C74.9297 42.3906 74.8672 42.4375 74.8359 42.4688C74.8203 42.4844 74.8203 42.5234 74.8359 42.5859C74.7734 42.6172 74.7266 42.6562 74.6953 42.7031C74.6641 42.75 74.6094 42.7891 74.5312 42.8203C74.4531 42.9297 74.375 43.0234 74.2969 43.1016C74.2188 43.1797 74.1484 43.2344 74.0859 43.2656C74.0391 43.2812 74 43.3203 73.9688 43.3828C73.8438 43.4609 73.7656 43.5234 73.7344 43.5703C73.7188 43.6172 73.6875 43.6562 73.6406 43.6875C73.5 43.7656 73.4219 43.8203 73.4062 43.8516C73.3906 43.8672 73.3672 43.8672 73.3359 43.8516C73.1328 44.0234 73.0312 44.1328 73.0312 44.1797C72.875 44.2422 72.7812 44.2969 72.75 44.3438C72.7188 44.3906 72.6562 44.4062 72.5625 44.3906C72.4062 44.4844 72.25 44.5234 72.0938 44.5078C71.9375 44.4766 71.8125 44.4453 71.7188 44.4141C71.6562 44.3828 71.6094 44.3594 71.5781 44.3438C71.5469 44.3281 71.5 44.3125 71.4375 44.2969C71.2969 44.2188 71.2109 44.1562 71.1797 44.1094C71.1484 44.0469 71.0938 44 71.0156 43.9688C71.0625 43.8906 71.0625 43.8203 71.0156 43.7578C70.9688 43.6797 70.9297 43.6172 70.8984 43.5703C70.9141 43.4922 70.9141 43.4375 70.8984 43.4062C70.8828 43.3594 70.8672 43.3203 70.8516 43.2891C70.8359 43.1016 70.8359 43 70.8516 42.9844C70.8672 42.9688 70.875 42.9531 70.875 42.9375C70.875 42.875 70.8672 42.8203 70.8516 42.7734C70.8359 42.7109 70.8359 42.6484 70.8516 42.5859C70.9141 42.4141 70.9375 42.2891 70.9219 42.2109C70.9219 42.1328 70.9375 42.0625 70.9688 42C71.0156 41.9219 71.0312 41.8672 71.0156 41.8359C71.0156 41.7891 71.0234 41.75 71.0391 41.7188C71.1172 41.5938 71.1562 41.5156 71.1562 41.4844C71.1875 41.3125 71.2109 41.2266 71.2266 41.2266C71.2578 41.1172 71.2891 41.0547 71.3203 41.0391C71.3672 41.0078 71.375 40.9609 71.3438 40.8984C71.4062 40.7891 71.4375 40.7188 71.4375 40.6875C71.4531 40.6562 71.4688 40.625 71.4844 40.5938C71.5469 40.5781 71.5938 40.5391 71.625 40.4766C71.6562 40.4141 71.6562 40.3438 71.625 40.2656C71.7656 40.2031 71.8359 40.1484 71.8359 40.1016C71.8359 40.0391 71.8516 39.9844 71.8828 39.9375C71.9922 39.8594 72.0938 39.7969 72.1875 39.75C72.2812 39.6875 72.3281 39.5859 72.3281 39.4453C72.4219 39.3359 72.4922 39.2734 72.5391 39.2578C72.6016 39.2266 72.6406 39.1719 72.6562 39.0938C72.7031 39.0625 72.7422 39.0312 72.7734 39C72.8047 38.9531 72.8359 38.9141 72.8672 38.8828C72.9453 38.8047 72.9844 38.7578 72.9844 38.7422C72.9844 38.7266 73 38.7031 73.0312 38.6719C73.2031 38.5781 73.3047 38.5156 73.3359 38.4844C73.4453 38.3594 73.5156 38.2812 73.5469 38.25C73.5781 38.2188 73.625 38.1953 73.6875 38.1797C73.8125 38.0703 73.9375 37.9844 74.0625 37.9219C74.125 37.8906 74.1719 37.875 74.2031 37.875C74.25 37.8594 74.2891 37.8281 74.3203 37.7812C74.4609 37.75 74.5859 37.7188 74.6953 37.6875C74.9141 37.5781 75.0781 37.5391 75.1875 37.5703C75.2969 37.5859 75.4297 37.5859 75.5859 37.5703C75.7422 37.6328 75.8359 37.6797 75.8672 37.7109C75.9141 37.7422 75.9531 37.7656 75.9844 37.7812C76.0312 37.7812 76.0859 37.7734 76.1484 37.7578C76.2109 37.7422 76.2656 37.75 76.3125 37.7812C76.4688 37.9062 76.5547 37.9688 76.5703 37.9688C76.6016 37.9688 76.6328 37.9844 76.6641 38.0156C76.8516 38.1094 76.9922 38.125 77.0859 38.0625C77.1797 38 77.2656 37.9453 77.3438 37.8984C77.4062 37.9141 77.4609 37.9219 77.5078 37.9219C77.5703 37.9062 77.625 37.9219 77.6719 37.9688ZM74.7891 39C74.7109 39 74.6562 38.9844 74.625 38.9531C74.6094 38.9219 74.5859 38.8984 74.5547 38.8828C74.4141 38.8516 74.2969 38.8594 74.2031 38.9062C74.1094 38.9531 74 38.9766 73.875 38.9766C73.7188 39.1172 73.6406 39.1953 73.6406 39.2109C73.5469 39.3359 73.4766 39.4219 73.4297 39.4688C73.3828 39.5156 73.375 39.5781 73.4062 39.6562C73.2188 39.7344 73.125 39.8281 73.125 39.9375C73.125 40.0469 73.0703 40.1172 72.9609 40.1484C72.9453 40.2266 72.9219 40.2969 72.8906 40.3594C72.8594 40.4219 72.8359 40.4922 72.8203 40.5703C72.7734 40.7578 72.75 40.8594 72.75 40.875C72.7656 40.8906 72.7656 40.9141 72.75 40.9453C72.7188 41.0234 72.6797 41.0938 72.6328 41.1562C72.6016 41.2188 72.6016 41.2734 72.6328 41.3203C72.5859 41.4922 72.5547 41.6094 72.5391 41.6719C72.5234 41.7344 72.5 41.8047 72.4688 41.8828C72.4844 42.0234 72.4922 42.1328 72.4922 42.2109C72.4922 42.2891 72.5 42.375 72.5156 42.4688C72.5469 42.5625 72.5625 42.6484 72.5625 42.7266C72.6875 42.8516 72.75 42.9141 72.75 42.9141C72.7656 42.9141 72.7734 42.9219 72.7734 42.9375C72.9922 42.9688 73.1094 42.9922 73.125 43.0078C73.1562 43.0234 73.2031 43.0469 73.2656 43.0781C73.3438 43 73.4219 42.9375 73.5 42.8906C73.5781 42.8438 73.6328 42.7578 73.6641 42.6328C73.8203 42.4922 73.9141 42.3984 73.9453 42.3516C73.9922 42.2891 74.0547 42.2422 74.1328 42.2109C74.2891 42.0078 74.3672 41.9062 74.3672 41.9062C74.4922 41.8125 74.5625 41.7344 74.5781 41.6719C74.6094 41.6094 74.6406 41.5234 74.6719 41.4141C74.75 41.3516 74.7969 41.3125 74.8125 41.2969C74.8438 41.2656 74.8516 41.2188 74.8359 41.1562C74.8672 41.0938 74.8984 41.0391 74.9297 40.9922C74.9766 40.9297 75 40.8594 75 40.7812C75.0781 40.75 75.125 40.7109 75.1406 40.6641C75.1719 40.6016 75.2266 40.5703 75.3047 40.5703C75.3203 40.4141 75.3438 40.3281 75.375 40.3125C75.4062 40.2812 75.4531 40.2656 75.5156 40.2656C75.5469 40.0938 75.5781 39.9688 75.6094 39.8906C75.6406 39.8125 75.6719 39.7344 75.7031 39.6562C75.5938 39.5312 75.5391 39.4375 75.5391 39.375C75.4141 39.2969 75.3359 39.2578 75.3047 39.2578C75.2891 39.2422 75.2734 39.2188 75.2578 39.1875C75.1953 39.1562 75.1328 39.1328 75.0703 39.1172C75.0234 39.0859 74.9688 39.0625 74.9062 39.0469L74.7891 39ZM85.5469 44.2266C85.4688 44.2891 85.3828 44.3203 85.2891 44.3203C85.2109 44.3203 85.125 44.3359 85.0312 44.3672C84.9844 44.3672 84.9375 44.3828 84.8906 44.4141C84.8594 44.4297 84.8203 44.4453 84.7734 44.4609C84.6016 44.4297 84.4844 44.4219 84.4219 44.4375C84.3594 44.4531 84.2812 44.4688 84.1875 44.4844C84.1406 44.4844 84.0859 44.4922 84.0234 44.5078C83.9609 44.5234 83.9141 44.5156 83.8828 44.4844C83.7891 44.4219 83.7266 44.3984 83.6953 44.4141C83.6641 44.4141 83.6406 44.3984 83.625 44.3672C83.4688 44.3828 83.3438 44.3984 83.25 44.4141C83.1562 44.4141 83.0469 44.4141 82.9219 44.4141C82.8906 44.3828 82.8438 44.3594 82.7812 44.3438C82.7344 44.3125 82.6953 44.2734 82.6641 44.2266C82.4922 44.1484 82.3516 44.1094 82.2422 44.1094C82.1328 44.0938 82.0547 44.0312 82.0078 43.9219C81.8047 43.875 81.6875 43.8281 81.6562 43.7812C81.6406 43.7188 81.5859 43.6875 81.4922 43.6875C81.3516 43.5938 81.2812 43.5391 81.2812 43.5234L81.1641 43.2891C81.0234 43.2109 80.9531 43.1016 80.9531 42.9609C80.8906 42.8828 80.8359 42.8125 80.7891 42.75C80.7578 42.6719 80.7422 42.5547 80.7422 42.3984C80.6797 42.3516 80.6328 42.3203 80.6016 42.3047C80.5859 42.2891 80.5625 42.2578 80.5312 42.2109C80.5 42.1172 80.4688 42.0312 80.4375 41.9531C80.3594 41.7969 80.3203 41.6875 80.3203 41.625C80.3359 41.5469 80.3125 41.4688 80.25 41.3906C80.25 41.3125 80.25 41.2422 80.25 41.1797C80.2656 41.1172 80.2656 41.0469 80.25 40.9688C80.2188 40.875 80.2031 40.8203 80.2031 40.8047C80.2188 40.7734 80.2266 40.7422 80.2266 40.7109C80.2266 40.6641 80.2188 40.6094 80.2031 40.5469C80.1875 40.4844 80.1953 40.4219 80.2266 40.3594C80.3203 40.0469 80.3906 39.7578 80.4375 39.4922C80.5 39.2109 80.5547 38.9375 80.6016 38.6719C80.6797 38.6094 80.75 38.5 80.8125 38.3438C80.9062 38.2031 80.9609 38.125 80.9766 38.1094C81.0703 38.0156 81.1328 37.9531 81.1641 37.9219C81.2109 37.8594 81.2578 37.8125 81.3047 37.7812C81.3672 37.75 81.4141 37.7031 81.4453 37.6406C81.5234 37.6094 81.5859 37.5625 81.6328 37.5C81.6953 37.4375 81.75 37.375 81.7969 37.3125C81.9688 37.2031 82.0781 37.125 82.125 37.0781C82.1875 37.0156 82.2656 36.9688 82.3594 36.9375C82.5156 36.8906 82.6094 36.8281 82.6406 36.75C82.6875 36.6562 82.7656 36.6172 82.875 36.6328C82.9062 36.6016 82.9453 36.5703 82.9922 36.5391C83.0391 36.5078 83.0859 36.4766 83.1328 36.4453C83.2109 36.3984 83.2812 36.3594 83.3438 36.3281C83.4219 36.2969 83.5078 36.2656 83.6016 36.2344C83.6797 36.2031 83.7578 36.1797 83.8359 36.1641C83.9141 36.1328 83.9922 36.1016 84.0703 36.0703C84.2891 36.0859 84.4375 36.0781 84.5156 36.0469C84.6094 36.0156 84.6875 35.9844 84.75 35.9531C84.9219 35.9688 85.0156 35.9844 85.0312 36C85.0625 36.0156 85.0938 36.0234 85.125 36.0234C85.2031 36.0234 85.2656 36.0234 85.3125 36.0234C85.375 36.0078 85.4453 36.0156 85.5234 36.0469C85.5859 36.0781 85.6562 36.1094 85.7344 36.1406C85.8281 36.1562 85.9141 36.1719 85.9922 36.1875C86.1016 36.3125 86.25 36.3984 86.4375 36.4453C86.5156 36.6016 86.5703 36.7109 86.6016 36.7734C86.6484 36.8359 86.7109 36.875 86.7891 36.8906C86.8047 36.9375 86.8203 36.9844 86.8359 37.0312C86.8672 37.0781 86.8984 37.1328 86.9297 37.1953C86.9766 37.2422 87.0078 37.3203 87.0234 37.4297C87.0391 37.5234 87.0469 37.6016 87.0469 37.6641C87.0156 37.7734 87 37.8438 87 37.875C87.0156 37.8906 87.0078 37.9062 86.9766 37.9219C86.9609 38.0781 86.9375 38.1875 86.9062 38.25C86.875 38.2969 86.8203 38.3359 86.7422 38.3672C86.6484 38.5078 86.5781 38.6094 86.5312 38.6719C86.4844 38.7344 86.4297 38.7891 86.3672 38.8359C86.2109 38.8672 86.1172 38.9062 86.0859 38.9531C85.8984 39.0156 85.7969 39.0547 85.7812 39.0703C85.6719 39.1797 85.5938 39.2344 85.5469 39.2344C85.5 39.2344 85.4609 39.2578 85.4297 39.3047C85.1328 39.3047 84.9766 39.2188 84.9609 39.0469C85.0859 38.9062 85.1562 38.8203 85.1719 38.7891C85.1875 38.7578 85.2188 38.75 85.2656 38.7656C85.2969 38.6406 85.3047 38.5547 85.2891 38.5078C85.2891 38.4609 85.2891 38.4141 85.2891 38.3672C85.2891 38.3203 85.2969 38.2734 85.3125 38.2266C85.3281 38.1797 85.3125 38.1328 85.2656 38.0859C85.1406 37.9922 85.0703 37.9453 85.0547 37.9453C85.0391 37.9297 85.0156 37.9062 84.9844 37.875C84.875 37.7969 84.8203 37.75 84.8203 37.7344C84.8203 37.7031 84.8047 37.6797 84.7734 37.6641C84.6641 37.5859 84.5859 37.5469 84.5391 37.5469C84.4922 37.5469 84.4453 37.5391 84.3984 37.5234C84.3047 37.4453 84.2344 37.4062 84.1875 37.4062C84.1406 37.4062 84.1016 37.3984 84.0703 37.3828C83.8359 37.3203 83.7109 37.2891 83.6953 37.2891C83.6328 37.2891 83.5781 37.2969 83.5312 37.3125C83.4844 37.3281 83.4297 37.3203 83.3672 37.2891C83.3203 37.3203 83.2812 37.3359 83.25 37.3359C83.2188 37.3359 83.1641 37.3438 83.0859 37.3594C82.9609 37.4062 82.875 37.4297 82.8281 37.4297C82.7812 37.4297 82.7266 37.4688 82.6641 37.5469C82.5234 37.7188 82.4375 37.8203 82.4062 37.8516C82.375 37.8828 82.3594 37.9297 82.3594 37.9922C82.2812 38.1328 82.2266 38.2266 82.1953 38.2734C82.1641 38.3203 82.1641 38.3594 82.1953 38.3906C82.1016 38.5469 82.0547 38.6328 82.0547 38.6484C82.0703 38.6641 82.0703 38.6875 82.0547 38.7188C81.9922 38.9531 81.9531 39.1406 81.9375 39.2812C81.9219 39.4219 81.9062 39.5625 81.8906 39.7031C81.8594 39.8594 81.8438 39.9453 81.8438 39.9609C81.875 40.1172 81.8906 40.2188 81.8906 40.2656C81.9375 40.4062 81.9609 40.4922 81.9609 40.5234C81.9609 40.5547 81.9766 40.5625 82.0078 40.5469C82.0391 40.9062 82.1172 41.1484 82.2422 41.2734C82.2422 41.3672 82.2656 41.4531 82.3125 41.5312C82.375 41.5938 82.4141 41.6719 82.4297 41.7656C82.4922 41.8281 82.5312 41.8984 82.5469 41.9766C82.5781 42.0391 82.6328 42.0938 82.7109 42.1406C82.7891 42.3125 82.8359 42.4062 82.8516 42.4219C82.8672 42.4219 82.8828 42.4297 82.8984 42.4453L83.0859 42.6328C83.1797 42.6641 83.2266 42.6953 83.2266 42.7266C83.2422 42.7578 83.2656 42.7891 83.2969 42.8203C83.4531 42.8516 83.5469 42.8984 83.5781 42.9609C83.7031 42.9609 83.7891 43 83.8359 43.0781C83.9141 43.0625 83.9609 43.0781 83.9766 43.125C83.9922 43.1719 84.0391 43.1875 84.1172 43.1719C84.2578 43.2344 84.375 43.2734 84.4688 43.2891C84.5625 43.3047 84.625 43.3438 84.6562 43.4062C84.7188 43.375 84.7734 43.375 84.8203 43.4062C84.8672 43.4219 84.9219 43.4297 84.9844 43.4297C85.1094 43.4609 85.2109 43.4766 85.2891 43.4766C85.3516 43.4766 85.4062 43.4688 85.4531 43.4531C85.5 43.4219 85.5469 43.4062 85.5938 43.4062C85.7344 43.4062 85.8281 43.3828 85.875 43.3359C85.9375 43.2891 86.0078 43.2734 86.0859 43.2891C86.1484 43.2578 86.2031 43.2266 86.25 43.1953C86.2969 43.1484 86.3672 43.1172 86.4609 43.1016C86.5078 43.0703 86.5391 43.0312 86.5547 42.9844C86.5703 42.9375 86.6094 42.9141 86.6719 42.9141C86.6719 42.8516 86.7031 42.8281 86.7656 42.8438C86.8438 42.8438 86.875 42.8047 86.8594 42.7266C87.0312 42.5703 87.1328 42.5078 87.1641 42.5391C87.1953 42.5547 87.2188 42.5234 87.2344 42.4453C87.2969 42.4453 87.3516 42.4531 87.3984 42.4688C87.4609 42.4688 87.5156 42.4609 87.5625 42.4453C87.5938 42.6016 87.5469 42.7031 87.4219 42.75L87.2344 43.0312C87.125 43.125 87.0625 43.1719 87.0469 43.1719C87.0469 43.1719 87.0469 43.1875 87.0469 43.2188C86.9062 43.3125 86.8047 43.3984 86.7422 43.4766C86.6797 43.5547 86.6406 43.6172 86.625 43.6641C86.5469 43.6797 86.5 43.7188 86.4844 43.7812C86.4688 43.8438 86.4219 43.875 86.3438 43.875C86.2656 43.9688 86.1641 44.0234 86.0391 44.0391C85.9297 44.0547 85.8438 44.1016 85.7812 44.1797L85.5469 44.2266ZM90.9375 30.4688C91.0156 30.7031 91.0859 30.8281 91.1484 30.8438C91.2109 30.9844 91.2812 31.1016 91.3594 31.1953C91.3438 31.2734 91.3516 31.3359 91.3828 31.3828C91.4141 31.4141 91.4453 31.4453 91.4766 31.4766C91.4609 31.6484 91.5 31.7969 91.5938 31.9219C91.5625 32 91.5625 32.0547 91.5938 32.0859C91.625 32.1172 91.6094 32.1484 91.5469 32.1797C91.6562 32.3359 91.6953 32.4141 91.6641 32.4141C91.6484 32.4141 91.6406 32.4297 91.6406 32.4609C91.6719 32.5078 91.6797 32.5938 91.6641 32.7188C91.6484 32.8281 91.6562 32.8984 91.6875 32.9297C91.7656 32.9297 91.8281 32.9297 91.875 32.9297C91.9219 32.9297 91.9844 32.9219 92.0625 32.9062C92.25 32.8906 92.3516 32.875 92.3672 32.8594C92.3984 32.8438 92.4297 32.8281 92.4609 32.8125C92.7734 32.7969 92.9609 32.8047 93.0234 32.8359C93.1016 32.8203 93.1641 32.7969 93.2109 32.7656C93.2734 32.7344 93.3438 32.7344 93.4219 32.7656C93.5 32.75 93.5547 32.7344 93.5859 32.7188C93.6328 32.7031 93.6719 32.7109 93.7031 32.7422C93.75 32.6797 93.8125 32.6562 93.8906 32.6719C93.9688 32.6719 94.0234 32.6484 94.0547 32.6016C94.1641 32.5859 94.2422 32.5781 94.2891 32.5781C94.3516 32.5625 94.4141 32.5312 94.4766 32.4844C94.6641 32.625 94.7422 32.7969 94.7109 33C94.5547 33.1406 94.4609 33.2031 94.4297 33.1875C94.4141 33.1719 94.3828 33.1719 94.3359 33.1875C94.2734 33.2656 94.2344 33.3203 94.2188 33.3516C94.2031 33.3672 94.1719 33.3828 94.125 33.3984C93.9688 33.4922 93.8828 33.5547 93.8672 33.5859C93.8516 33.6016 93.8281 33.6172 93.7969 33.6328C93.6719 33.7578 93.5938 33.8203 93.5625 33.8203C93.5312 33.8047 93.5 33.8047 93.4688 33.8203C93.2812 33.8984 93.1562 33.9531 93.0938 33.9844C93.0312 34 92.9453 33.9922 92.8359 33.9609C92.6172 33.9922 92.4766 34.0234 92.4141 34.0547C92.3516 34.0703 92.2812 34.0781 92.2031 34.0781C92.1562 34.0781 92.1094 34.0781 92.0625 34.0781C92.0156 34.0625 91.9688 34.0547 91.9219 34.0547C91.8125 34.0703 91.7344 34.1016 91.6875 34.1484C91.6562 34.1797 91.625 34.2344 91.5938 34.3125C91.5781 34.3438 91.5625 34.3906 91.5469 34.4531C91.5312 34.5156 91.5234 34.5859 91.5234 34.6641C91.5703 34.8516 91.5859 34.9609 91.5703 34.9922C91.5547 35.0234 91.5391 35.0625 91.5234 35.1094C91.5391 35.1562 91.5547 35.2031 91.5703 35.25C91.5859 35.2812 91.5938 35.3281 91.5938 35.3906C91.5938 35.4688 91.5859 35.5391 91.5703 35.6016C91.5703 35.6641 91.5781 35.7422 91.5938 35.8359C91.6094 35.9453 91.6094 36.0078 91.5938 36.0234C91.5781 36.0391 91.5703 36.0625 91.5703 36.0938C91.5859 36.25 91.5781 36.3828 91.5469 36.4922C91.5312 36.5859 91.5312 36.6719 91.5469 36.75C91.5625 36.8906 91.5625 36.9766 91.5469 37.0078C91.5312 37.0234 91.5156 37.0469 91.5 37.0781C91.4688 37.1719 91.4688 37.2812 91.5 37.4062C91.5469 37.5156 91.5312 37.6094 91.4531 37.6875C91.5 37.9062 91.5 38.1016 91.4531 38.2734C91.4062 38.4453 91.4219 38.5781 91.5 38.6719C91.4531 38.8125 91.4297 38.8906 91.4297 38.9062C91.4453 38.9062 91.4531 38.9141 91.4531 38.9297C91.4219 39.1016 91.4062 39.1953 91.4062 39.2109C91.3125 39.3984 91.2812 39.5156 91.3125 39.5625C91.3438 39.6094 91.3359 39.6484 91.2891 39.6797C91.3047 39.7578 91.3125 39.8281 91.3125 39.8906C91.3281 39.9531 91.3359 40.0312 91.3359 40.125C91.3359 40.1562 91.3281 40.2031 91.3125 40.2656C91.2969 40.3125 91.2891 40.3516 91.2891 40.3828C91.2891 40.6016 91.2891 40.75 91.2891 40.8281C91.3047 40.9062 91.2891 40.9844 91.2422 41.0625C91.2578 41.2344 91.2734 41.3828 91.2891 41.5078C91.3047 41.6172 91.3281 41.7031 91.3594 41.7656C91.3125 41.9531 91.2969 42.0781 91.3125 42.1406C91.3281 42.2969 91.3281 42.3828 91.3125 42.3984C91.2969 42.4141 91.2891 42.4297 91.2891 42.4453C91.2891 42.6016 91.2969 42.7109 91.3125 42.7734C91.3281 42.9297 91.3438 43.0156 91.3594 43.0312C91.375 43.0469 91.3828 43.0625 91.3828 43.0781C91.3672 43.1719 91.3672 43.2422 91.3828 43.2891C91.3984 43.3203 91.4062 43.3438 91.4062 43.3594C91.4062 43.4688 91.4219 43.5391 91.4531 43.5703C91.5 43.6016 91.5156 43.6484 91.5 43.7109C91.5312 43.8203 91.5547 43.8828 91.5703 43.8984C91.5859 43.9141 91.5938 43.9453 91.5938 43.9922C91.6719 44.1328 91.7188 44.2188 91.7344 44.25C91.7656 44.2656 91.7891 44.2891 91.8047 44.3203C91.9141 44.4922 91.9922 44.5859 92.0391 44.6016C92.1016 44.6172 92.1406 44.6562 92.1562 44.7188C92.2812 44.8438 92.3516 44.9062 92.3672 44.9062C92.4453 44.8906 92.5078 44.8984 92.5547 44.9297C92.6016 44.9609 92.6641 44.9688 92.7422 44.9531C92.9141 45.0469 93.0234 45.0781 93.0703 45.0469C93.1172 45.0156 93.1562 45.0156 93.1875 45.0469C93.4688 44.9531 93.6328 44.8359 93.6797 44.6953C93.7578 44.6953 93.8125 44.6719 93.8438 44.625C93.8906 44.5625 93.9688 44.5312 94.0781 44.5312C94.125 44.5 94.1562 44.4609 94.1719 44.4141C94.2031 44.3672 94.2344 44.3281 94.2656 44.2969C94.3281 44.3125 94.375 44.3203 94.4062 44.3203C94.4375 44.3047 94.4844 44.2969 94.5469 44.2969C94.5781 44.3906 94.5547 44.4375 94.4766 44.4375C94.3984 44.4375 94.3672 44.4844 94.3828 44.5781C94.2891 44.7031 94.2266 44.7891 94.1953 44.8359C94.1641 44.8828 94.1328 44.9219 94.1016 44.9531C93.9141 45.0781 93.7578 45.1719 93.6328 45.2344C93.5078 45.3125 93.4062 45.4141 93.3281 45.5391C93.25 45.5391 93.1797 45.5469 93.1172 45.5625C93.0547 45.5781 92.9766 45.5938 92.8828 45.6094C92.7266 45.7031 92.6484 45.7656 92.6484 45.7969C92.6484 45.8281 92.6328 45.8516 92.6016 45.8672C92.5703 45.8984 92.5234 45.9141 92.4609 45.9141C92.3984 45.9141 92.3359 45.9297 92.2734 45.9609C92.1016 46.0391 92.0078 46.0703 91.9922 46.0547C91.9766 46.0391 91.9531 46.0312 91.9219 46.0312C91.7969 46.0781 91.7109 46.1016 91.6641 46.1016C91.6172 46.1016 91.5781 46.1172 91.5469 46.1484C91.4531 46.1328 91.3594 46.1172 91.2656 46.1016C91.1719 46.1016 91.1094 46.0625 91.0781 45.9844C90.9688 46 90.8906 45.9844 90.8438 45.9375C90.8125 45.8906 90.7812 45.8438 90.75 45.7969C90.6094 45.75 90.5312 45.7031 90.5156 45.6562C90.5 45.625 90.4531 45.6094 90.375 45.6094C90.2656 45.4531 90.2031 45.3594 90.1875 45.3281C90.1719 45.3125 90.1562 45.2891 90.1406 45.2578C90.0625 45.1797 90.0078 45.0938 89.9766 45C89.9609 44.8906 89.8984 44.8125 89.7891 44.7656C89.7734 44.5781 89.7578 44.4766 89.7422 44.4609C89.7266 44.4297 89.7188 44.3984 89.7188 44.3672C89.6562 44.2578 89.6484 44.1641 89.6953 44.0859C89.6484 44.0234 89.6328 43.9609 89.6484 43.8984C89.6797 43.8359 89.6562 43.7812 89.5781 43.7344C89.6406 43.7031 89.6641 43.6641 89.6484 43.6172C89.6328 43.5703 89.625 43.4922 89.625 43.3828C89.6406 43.2578 89.6406 43.1875 89.625 43.1719C89.6094 43.1406 89.5938 43.0938 89.5781 43.0312C89.5781 42.7656 89.5859 42.5703 89.6016 42.4453C89.6172 42.3047 89.6016 42.1953 89.5547 42.1172C89.6016 42.0078 89.6172 41.9297 89.6016 41.8828C89.5859 41.8203 89.5781 41.7734 89.5781 41.7422C89.5781 41.6641 89.5859 41.5938 89.6016 41.5312C89.6172 41.4531 89.6094 41.3828 89.5781 41.3203C89.6094 41.1797 89.6328 41.0859 89.6484 41.0391C89.6797 40.9766 89.7031 40.9141 89.7188 40.8516C89.6875 40.6797 89.6875 40.5547 89.7188 40.4766C89.75 40.3828 89.7656 40.2969 89.7656 40.2188C89.7812 40.0312 89.7812 39.9062 89.7656 39.8438C89.7656 39.7656 89.7734 39.6875 89.7891 39.6094C89.7891 39.4531 89.8047 39.3438 89.8359 39.2812C89.8203 39.1094 89.8281 38.9922 89.8594 38.9297C89.8906 38.8672 89.8906 38.8125 89.8594 38.7656C89.875 38.625 89.8906 38.5312 89.9062 38.4844C89.9219 38.4219 89.9297 38.375 89.9297 38.3438C89.9297 38.2969 89.9219 38.25 89.9062 38.2031C89.8906 38.1406 89.8828 38.0859 89.8828 38.0391C89.8828 37.8828 89.9062 37.75 89.9531 37.6406C90 37.5156 90 37.4219 89.9531 37.3594C90 37.3125 90.0156 37.2578 90 37.1953C89.9844 37.1172 89.9766 37.0391 89.9766 36.9609C89.9766 36.7734 89.9766 36.6562 89.9766 36.6094C89.9922 36.5156 90 36.4531 90 36.4219C90 36.3906 90.0078 36.3594 90.0234 36.3281C90.0078 36.25 90.0078 36.1719 90.0234 36.0938C90.0391 36 90.0312 35.9141 90 35.8359C90.0469 35.7266 90.0625 35.6172 90.0469 35.5078C90.0312 35.3828 90.0469 35.2891 90.0938 35.2266C90.0625 35.1641 90.0625 35.1094 90.0938 35.0625C90.125 35 90.1406 34.9453 90.1406 34.8984C90.125 34.7891 90.125 34.7109 90.1406 34.6641C90.1562 34.6172 90.1641 34.5781 90.1641 34.5469C89.9453 34.4219 89.7656 34.3906 89.625 34.4531C89.4844 34.5 89.3438 34.5 89.2031 34.4531C89.0469 34.5 88.9219 34.5312 88.8281 34.5469C88.75 34.5469 88.6719 34.5469 88.5938 34.5469C88.3906 34.5781 88.2812 34.5938 88.2656 34.5938C88.1094 34.5625 88.0234 34.5625 88.0078 34.5938C87.9922 34.625 87.9688 34.6406 87.9375 34.6406C87.8438 34.5 87.7891 34.4297 87.7734 34.4297C87.7578 34.4297 87.7422 34.4141 87.7266 34.3828C87.7266 34.1953 87.75 34.0781 87.7969 34.0312C87.8281 33.9844 87.8828 33.9531 87.9609 33.9375C88.0703 33.8438 88.1094 33.7656 88.0781 33.7031C88.2656 33.6562 88.375 33.5703 88.4062 33.4453C88.4844 33.4297 88.5547 33.4141 88.6172 33.3984C88.6797 33.3672 88.7266 33.3125 88.7578 33.2344C89.0234 33.25 89.2109 33.2344 89.3203 33.1875C89.3516 33.1875 89.3906 33.1875 89.4375 33.1875C89.5 33.1719 89.5469 33.1562 89.5781 33.1406C89.625 33.1406 89.7031 33.1562 89.8125 33.1875C89.9219 33.2031 90 33.2031 90.0469 33.1875C90.0625 33.0938 90.0703 32.9453 90.0703 32.7422C90.0859 32.5391 90.0625 32.4141 90 32.3672C89.9219 32.2578 89.875 32.1641 89.8594 32.0859C89.8594 31.9922 89.8203 31.9297 89.7422 31.8984C89.6172 31.8047 89.5156 31.75 89.4375 31.7344C89.3594 31.7188 89.3047 31.7266 89.2734 31.7578C89.1328 31.8203 89.0391 31.8672 88.9922 31.8984C88.9609 31.9141 88.9141 31.9297 88.8516 31.9453L88.5 32.0859C88.4688 32.0391 88.4375 32 88.4062 31.9688C88.375 31.9219 88.3594 31.8594 88.3594 31.7812C88.4062 31.6719 88.4453 31.6094 88.4766 31.5938C88.5078 31.5781 88.5234 31.5391 88.5234 31.4766C88.6641 31.4297 88.7578 31.3359 88.8047 31.1953C88.8984 31.1484 88.9844 31.1094 89.0625 31.0781C89.1562 31.0312 89.2109 30.9531 89.2266 30.8438C89.3203 30.875 89.4062 30.8672 89.4844 30.8203C89.5781 30.7734 89.6406 30.7109 89.6719 30.6328C89.8125 30.6016 89.8984 30.5859 89.9297 30.5859C89.9766 30.5703 90 30.5469 90 30.5156C90.1875 30.4531 90.2891 30.4297 90.3047 30.4453C90.3359 30.4453 90.3672 30.4375 90.3984 30.4219C90.5859 30.3906 90.6797 30.3906 90.6797 30.4219C90.6797 30.4375 90.6875 30.4531 90.7031 30.4688H90.9375Z" fill="#584BEB"/>
</g>
</g>
</svg>
