<svg width="120" height="325" viewBox="0 0 120 325" fill="none" xmlns="http://www.w3.org/2000/svg">
<g id="plant1">
<path id="stem" d="M61.0893 324.459C61.0893 324.459 85.7593 240.699 56.4593 179.049C44.1593 153.179 40.0793 124.129 45.7593 96.0489C48.4754 82.717 52.4085 69.6623 57.5093 57.0489" stroke="#584BEB" stroke-width="2" stroke-miterlimit="10"/>
<g id="leaves">
<path id="Vector" d="M39.2793 18.1589C39.2793 28.4289 57.8693 58.1589 57.8693 58.1589C57.8693 58.1589 76.4593 28.3889 76.4593 18.1589C76.3467 13.3045 74.3392 8.68679 70.8661 5.29333C67.393 1.89988 62.73 0 57.8743 0C53.0186 0 48.3556 1.89988 44.8825 5.29333C41.4094 8.68679 39.4019 13.3045 39.2893 18.1589H39.2793Z" fill="#F04CC7"/>
<path id="Vector_2" d="M8.55933 75.0189C14.1393 83.6389 45.9193 98.5189 45.9193 98.5189C45.9193 98.5189 45.3393 63.4289 39.7593 54.8089C37.0223 50.8056 32.8293 48.0303 28.0748 47.0751C23.3203 46.1199 18.3807 47.0604 14.3099 49.6959C10.2391 52.3315 7.35938 56.4535 6.28504 61.1825C5.21069 65.9115 6.02684 70.8731 8.55933 75.0088V75.0189Z" fill="#F04CC7"/>
<path id="Vector_3" d="M9.8993 172.189C19.0693 176.809 54.0093 173.619 54.0093 173.619C54.0093 173.619 35.7993 143.619 26.6293 138.999C22.2417 136.894 17.2037 136.594 12.5973 138.163C7.99084 139.732 4.18312 143.044 1.9917 147.389C-0.199713 151.734 -0.600072 156.765 0.876531 161.402C2.35313 166.038 5.589 169.911 9.88935 172.189H9.8993Z" fill="#F04CC7"/>
<path id="Vector_4" d="M27.4693 245.459C35.7193 251.559 70.7093 254.319 70.7093 254.319C70.7093 254.319 57.8294 221.679 49.5794 215.569C47.6184 214.094 45.3847 213.022 43.0073 212.414C40.63 211.807 38.1559 211.676 35.7277 212.029C33.2995 212.383 30.9653 213.213 28.8597 214.473C26.7541 215.733 24.9187 217.397 23.4595 219.37C22.0002 221.343 20.946 223.585 20.3575 225.967C19.769 228.349 19.6579 230.824 20.0307 233.25C20.4035 235.675 21.2527 238.002 22.5294 240.098C23.8061 242.193 25.485 244.015 27.4693 245.459Z" fill="#F04CC7"/>
<path id="Vector_5" d="M84.9893 100.509C77.6293 107.659 43.3193 115.069 43.3193 115.069C43.3193 115.069 51.7193 80.9989 59.0793 73.8389C60.8305 72.1376 62.8996 70.7979 65.1685 69.8963C67.4374 68.9946 69.8618 68.5487 72.303 68.584C74.7443 68.6193 77.1547 69.1351 79.3966 70.1019C81.6385 71.0687 83.668 72.4677 85.3693 74.2189C87.0706 75.97 88.4103 78.0392 89.3119 80.3081C90.2135 82.577 90.6594 85.0013 90.6241 87.4426C90.5889 89.8838 90.0731 92.2942 89.1063 94.5361C88.1394 96.778 86.7405 98.8076 84.9893 100.509Z" fill="#F04CC7"/>
<path id="Vector_6" d="M104.409 186.459C95.2393 191.079 60.2993 187.889 60.2993 187.889C60.2993 187.889 78.5093 157.889 87.6793 153.269C89.8657 152.097 92.2645 151.374 94.7346 151.143C97.2047 150.912 99.696 151.178 102.062 151.925C104.427 152.672 106.62 153.885 108.509 155.493C110.399 157.1 111.948 159.069 113.064 161.285C114.181 163.5 114.843 165.916 115.011 168.391C115.179 170.867 114.851 173.35 114.044 175.696C113.237 178.042 111.969 180.203 110.315 182.052C108.66 183.9 106.652 185.399 104.409 186.459Z" fill="#F04CC7"/>
<path id="Vector_7" d="M111.859 272.639C103.609 278.739 68.6193 281.499 68.6193 281.499C68.6193 281.499 81.4993 248.859 89.7493 242.749C93.7156 239.864 98.6614 238.663 103.509 239.408C108.357 240.153 112.714 242.784 115.63 246.727C118.547 250.67 119.787 255.606 119.081 260.46C118.375 265.313 115.779 269.691 111.859 272.639Z" fill="#F04CC7"/>
</g>
</g>
</svg>
