<svg width="141" height="315" viewBox="0 0 141 315" fill="none" xmlns="http://www.w3.org/2000/svg">
<g id="plant2">
<path id="stem" d="M39.4711 296.182C45.0314 284.107 38.7275 269.349 31.4625 258.616C24.1976 247.882 15.4453 236.68 15.5826 222.981C15.8572 203.299 33.6706 191.667 47.9145 181.229C58.4829 173.491 68.2301 164.308 76.9514 153.873C80.4524 149.687 83.816 145.206 85.8754 139.866C88.8157 132.179 88.7356 123.418 88.5525 114.979C87.9347 86.9023 86.7487 58.844 84.9944 30.8035" stroke="#584BEB" stroke-width="4" stroke-miterlimit="10"/>
<g id="leaf">
<path id="Vector" d="M112.064 29.2606C111.86 24.1191 110.555 19.1205 108.27 14.7263C105.984 10.3321 102.792 6.68381 98.9866 4.11808L93.1288 17.709L93.3005 1.24693C87.977 -0.58884 82.2937 -0.393323 77.0712 1.80516C71.8486 4.00364 67.3569 8.0914 64.2444 13.4783C61.132 18.8653 59.5598 25.2727 59.7548 31.7757C59.9498 38.2787 61.9019 44.5408 65.3293 49.6581C68.7568 54.7754 73.4823 58.483 78.8236 60.2459C84.165 62.0087 89.8459 61.7356 95.0462 59.4659C100.247 57.1962 104.697 53.0473 107.756 47.6181C110.815 42.189 112.323 35.7605 112.064 29.2606V29.2606Z" fill="#F04CC7"/>
<path id="Vector_2" d="M65.373 237.055C62.6244 243.313 58.1249 248.272 52.6287 251.101C47.1326 253.93 40.9742 254.456 35.186 252.593C29.3979 250.73 24.3321 246.59 20.8379 240.867C17.3437 235.144 15.6337 228.186 15.9946 221.16C16.3554 214.134 18.7652 207.467 22.8199 202.277C26.8745 197.087 32.3274 193.69 38.2644 192.654C44.2014 191.619 50.2614 193.009 55.4282 196.591C60.5951 200.173 64.5546 205.73 66.643 212.329L50.2826 227.932L68.2791 223.048C68.2784 227.923 67.2819 232.726 65.373 237.055V237.055Z" fill="#F04CC7"/>
<path id="Vector_3" d="M52.445 177.446C46.0166 177.81 39.699 175.385 34.6988 170.633C29.6987 165.881 26.3667 159.136 25.3391 151.686C24.3116 144.235 25.6607 136.602 29.1286 130.244C32.5965 123.886 37.9401 119.249 44.1389 117.219L44.0016 129.871L49.9281 116.106H49.9968C53.4738 115.829 56.9629 116.37 60.2595 117.695C63.5562 119.021 66.5941 121.105 69.1953 123.824C71.7964 126.544 73.9083 129.846 75.4075 133.535C76.9066 137.224 77.7629 141.227 77.9258 145.31C78.0887 149.392 77.5552 153.472 76.3564 157.309C75.1577 161.146 73.3179 164.665 70.9448 167.658C68.5717 170.65 65.7131 173.058 62.5364 174.739C59.3597 176.419 55.9289 177.34 52.445 177.446V177.446Z" fill="#F04CC7"/>
<path id="Vector_4" d="M115.999 127.858C111.948 128.084 107.908 127.203 104.197 125.285C100.486 123.367 97.2055 120.465 94.6141 116.807C92.0226 113.148 90.1912 108.834 89.2639 104.205C88.3366 99.5749 88.3387 94.7559 89.2704 90.1273C90.2021 85.4988 92.0377 81.1872 94.6326 77.5324C97.2275 73.8776 100.511 70.9796 104.224 69.0665C107.937 67.1535 111.978 66.2777 116.028 66.5083C120.079 66.739 124.029 68.0698 127.566 70.3956L122.99 85.2611L132.509 74.5279C135.036 77.2337 137.084 80.4977 138.535 84.1328C139.986 87.768 140.811 91.703 140.963 95.7126C141.094 98.5743 140.875 101.443 140.311 104.232C139.002 110.736 135.921 116.561 131.533 120.825C127.146 125.089 121.692 127.558 115.999 127.858Z" fill="#F04CC7"/>
<path id="Vector_5" opacity="0.1" d="M108.54 37.4446C102.499 38.2227 96.6186 40.4231 90.5549 40.8658C84.4912 41.3086 77.8326 39.6047 73.9999 34.0771C71.9291 31.0986 70.8994 27.3688 69.149 24.0818C67.4958 21.0591 65.2322 18.5615 62.559 16.8101C60.8647 20.7047 59.899 24.9787 59.7267 29.3462C59.5543 33.7137 60.1792 38.074 61.5596 42.1355C62.9399 46.197 65.0439 49.8661 67.7307 52.8973C70.4176 55.9285 73.6254 58.252 77.1396 59.7124C80.6539 61.1728 84.3936 61.7364 88.1085 61.3655C91.8234 60.9947 95.428 59.6979 98.6812 57.5619C101.934 55.4259 104.761 52.4999 106.972 48.9797C109.183 45.4595 110.728 41.4261 111.503 37.1495C110.565 37.2434 109.524 37.3238 108.54 37.4446Z" fill="black"/>
<path id="Vector_6" opacity="0.1" d="M115.999 127.858C111.495 128.09 107.015 126.956 102.994 124.564C98.9727 122.173 95.5454 118.605 93.0436 114.206C90.5417 109.807 89.0498 104.726 88.712 99.4533C88.3743 94.1806 89.202 88.895 91.1154 84.1072C93.1992 85.7433 94.9875 87.845 96.3782 90.2922C98.2431 93.5926 99.3758 97.4029 101.572 100.435C105.645 106.057 112.613 107.895 118.928 107.559C125.244 107.224 131.342 105.117 137.646 104.447C138.515 104.353 139.396 104.286 140.277 104.259C138.966 110.751 135.887 116.566 131.507 120.824C127.126 125.082 121.683 127.551 115.999 127.858V127.858Z" fill="black"/>
<path id="Vector_7" opacity="0.1" d="M52.4451 177.446C47.9721 177.704 43.5175 176.612 39.5071 174.275C35.4967 171.938 32.0648 168.433 29.5394 164.096C27.0141 159.759 25.4799 154.734 25.0835 149.503C24.6871 144.272 25.4417 139.009 27.2753 134.218C29.4278 135.887 31.3039 138.001 32.8126 140.456C34.8377 143.824 36.1077 147.701 38.5331 150.814C42.9493 156.583 50.3744 158.609 57.0673 158.421C63.5542 158.26 69.7895 156.395 76.2421 155.818C74.6531 161.855 71.5157 167.171 67.2573 171.041C62.999 174.911 57.8266 177.147 52.4451 177.446V177.446Z" fill="black"/>
<path id="Vector_8" opacity="0.1" d="M65.3733 237.055C62.3004 244.023 57.0702 249.348 50.7555 251.937C44.4409 254.527 37.5206 254.184 31.4146 250.98C25.3085 247.775 20.4796 241.952 17.9186 234.705C15.3576 227.458 15.2587 219.337 17.6421 212.007C19.7886 213.667 21.7158 215.688 23.3625 218.004C25.8566 221.572 27.4926 225.597 30.3757 228.911C35.73 235.083 44.368 237.619 52.1134 237.86C56.543 237.895 60.9705 237.626 65.3733 237.055V237.055Z" fill="black"/>
</g>
<g id="rock">
<path id="Vector_9" d="M0 282.309C0 282.309 20.6622 281.558 26.8861 276.365C33.1099 271.173 58.6689 264.948 60.2134 273.293C61.7579 281.638 91.264 314.764 67.936 314.992C44.608 315.22 13.7291 310.725 7.51667 306.284C1.30427 301.843 0 282.309 0 282.309Z" fill="#584BEB"/>
<path id="Vector_10" opacity="0.2" d="M68.3593 312.094C45.0313 312.308 14.1524 307.827 7.93997 303.386C3.20345 300.005 1.31574 287.877 0.686495 282.282H0C0 282.282 1.30427 301.817 7.51667 306.258C13.7291 310.698 44.608 315.18 67.936 314.965C74.6746 314.898 76.9972 312.094 76.8714 307.935C75.9332 310.47 73.3704 312.04 68.3593 312.094Z" fill="black"/>
</g>
</g>
</svg>
